<svg width="1024" height="1024" viewBox="0 0 1024 1024" fill="none" xmlns="http://www.w3.org/2000/svg">
<path d="M514.213 674.56C529.228 674.412 543.411 671.206 558.091 668.64C551.21 681.456 542.818 692.781 532.826 703.313C528.832 697.775 515.454 688.907 509.394 685.402C511.134 681.868 512.623 678.167 514.213 674.56Z" fill="#1D9A0C"/>
<path d="M411.957 656.318C415.513 660.134 419.525 663.455 423.277 667.07C426.389 670.067 429.44 673.718 432.944 676.228C424.832 684.129 412.54 697.711 401.991 701.936C400.134 702.679 397.811 703.419 395.905 702.465C394.884 701.955 394.393 700.797 394.173 699.735C392.123 689.873 406.382 665.309 411.957 656.318Z" fill="#2FB825"/>
<path d="M509.394 685.402C515.454 688.907 528.832 697.775 532.826 703.313C524.747 712.563 513.105 726.959 502.612 732.908C500.88 733.89 498.321 734.986 496.327 734.221C495.291 733.824 494.685 732.989 494.301 731.981C490.848 722.941 505.172 694.483 509.394 685.402Z" fill="#2FB825"/>
<path d="M703.534 494.059C708.112 489.993 713.164 486.479 717.919 482.622C725.591 476.397 733.506 468.452 742.175 463.802C743.975 462.836 745.529 462.385 747.571 462.494C750.144 462.631 752.253 463.605 753.982 465.528C755.962 467.731 756.919 470.412 757.801 473.185C749.988 494.192 718.658 509.776 699.186 519.044C701.35 510.967 702.281 502.314 703.534 494.059Z" fill="#2FB825"/>
<path d="M327.054 491.874C325.013 491.359 322.987 490.675 321.017 489.934C301.178 482.473 279.22 464.769 270.459 445.116C268.693 441.154 267.557 436.616 269.302 432.437C270.032 430.691 271.134 429.398 272.95 428.726C275.862 427.649 279.81 429.377 282.211 430.948C287.435 434.366 291.739 440.009 296.05 444.487C304.996 453.779 314.285 461.366 325.526 467.72C325.755 475.789 326.265 483.841 327.054 491.874Z" fill="#2FB825"/>
<path d="M441.826 127.939C449.911 132.983 456.341 142.338 462.522 149.529C482.269 172.504 500.897 195.637 518.274 220.478C524.18 228.92 536.487 248.567 542.89 254.638C541.919 256.477 540.989 258.827 539.542 260.318C525.299 257.761 510.255 248.792 498.963 240.074C471.231 218.663 453.274 187.841 445.769 153.854C443.871 145.257 442.917 136.661 441.826 127.939Z" fill="#1D9A0C"/>
<path d="M754.715 117.622C733.925 174.838 698.579 219.277 642.786 245.374C618.488 256.739 574.731 267.423 548.187 263.681L546.55 263.306C551.728 257.599 557.713 252.805 563.21 247.426C567.994 242.745 572.574 237.804 577.528 233.302C621.368 193.463 672.171 163.378 723.625 134.609C731.928 129.966 746.034 119.342 754.715 117.622Z" fill="#1D9A0C"/>
<path d="M546.014 244.263C564.356 201.138 593.09 162.142 634.74 139.031C665.908 121.736 703.503 114.044 739.027 115.787C743.691 116.015 750.179 115.594 754.548 116.839L754.715 117.622C746.034 119.342 731.928 129.966 723.625 134.609C672.171 163.378 621.368 193.463 577.528 233.302C572.574 237.804 567.994 242.745 563.21 247.426C557.713 252.805 551.728 257.599 546.55 263.306L548.187 263.681L546.509 269.327L541.667 268.115L538.748 268.04C539.314 266.288 540.094 264.377 540.334 262.554C540.502 261.284 540.328 261.233 539.542 260.318C540.989 258.827 541.919 256.477 542.89 254.638C536.487 248.567 524.18 228.92 518.274 220.478C500.897 195.637 482.269 172.504 462.522 149.529C456.341 142.338 449.911 132.983 441.826 127.939C441.728 127.013 441.541 126.973 442.103 126.171C442.348 126.153 442.593 126.127 442.838 126.116C446.156 125.975 451.056 128.442 454.13 129.696C474.318 137.935 492.979 149.292 508.672 164.54C529.824 185.091 545.625 214.348 546.014 244.263Z" fill="#2FB825"/>
<path d="M546.55 263.306L548.187 263.681L546.509 269.327L541.667 268.115C543.221 266.408 544.846 264.859 546.55 263.306Z" fill="#2A3629"/>
<path d="M639.599 313.138C676.593 343.991 700.047 394.812 704.411 442.341C704.922 447.621 705.215 452.913 705.292 458.217C705.368 463.521 705.227 468.819 704.868 474.112C704.446 480.629 703.219 487.564 703.534 494.059C702.281 502.314 701.35 510.967 699.186 519.044C695.169 532.448 691.105 545.605 685.283 558.366C668.114 595.996 637.724 630.759 601.168 650.576C593.431 654.77 585.413 658.777 577.152 661.831C571.406 663.955 563.214 665.602 558.091 668.64C543.411 671.206 529.228 674.412 514.213 674.56C489.727 673.984 470.319 670.221 447.353 661.734C442.57 666.577 437.847 671.507 432.944 676.228C429.44 673.718 426.389 670.067 423.277 667.07C419.525 663.455 415.513 660.134 411.957 656.318C413.785 652.872 415.866 649.52 417.822 646.142C403.364 636.795 390.697 624.21 379.061 611.629C387.644 611.464 405.821 618.451 415.827 620.326C417.226 620.599 418.627 620.859 420.03 621.105C421.433 621.351 422.839 621.584 424.247 621.803C425.655 622.022 427.065 622.228 428.477 622.421C429.889 622.613 431.302 622.792 432.717 622.957C434.132 623.122 435.549 623.274 436.968 623.412C438.386 623.55 439.805 623.674 441.226 623.785C442.647 623.896 444.068 623.994 445.491 624.077C446.913 624.161 448.336 624.231 449.76 624.287C451.184 624.344 452.608 624.386 454.033 624.415C455.457 624.444 456.882 624.46 458.307 624.462C459.732 624.463 461.156 624.451 462.581 624.426C464.006 624.401 465.43 624.362 466.854 624.309C468.278 624.256 469.701 624.19 471.124 624.109C472.547 624.029 473.968 623.935 475.389 623.828C476.81 623.721 478.23 623.601 479.648 623.466C481.067 623.331 482.484 623.183 483.9 623.022C485.315 622.86 486.729 622.685 488.142 622.496C489.554 622.307 490.964 622.105 492.373 621.889C493.782 621.674 495.188 621.445 496.592 621.202C497.996 620.959 499.398 620.703 500.797 620.433C502.196 620.164 503.593 619.881 504.986 619.585C506.38 619.288 507.771 618.979 509.159 618.656C510.546 618.333 511.931 617.996 513.313 617.647C514.694 617.298 516.072 616.935 517.446 616.559C518.821 616.183 520.191 615.794 521.558 615.392C522.925 614.99 524.288 614.575 525.647 614.147C527.006 613.718 528.361 613.277 529.712 612.823C531.063 612.369 532.409 611.902 533.75 611.422C535.092 610.942 536.429 610.449 537.761 609.943C539.093 609.438 540.42 608.919 541.743 608.388C543.065 607.857 544.382 607.314 545.694 606.757C547.006 606.201 548.312 605.632 549.613 605.051C599.055 583.085 640.512 542.378 659.974 491.645C678.129 444.317 677.963 388.907 657.259 342.4C654.913 337.13 652.309 331.286 649.138 326.474C646.453 322.4 641.699 318.364 639.905 313.944C639.797 313.677 639.701 313.406 639.599 313.138Z" fill="#EA6A0A"/>
<path d="M411.957 656.318C413.785 652.872 415.866 649.52 417.822 646.142C427.505 651.915 436.876 657.452 447.353 661.734C442.57 666.577 437.847 671.507 432.944 676.228C429.44 673.718 426.389 670.067 423.277 667.07C419.525 663.455 415.513 660.134 411.957 656.318Z" fill="#1D9A0C"/>
<path d="M325.526 467.72C325.634 462.426 325.677 457.128 325.982 451.839C328.931 400.791 351.583 350.339 390.022 316.12C391.032 315.215 392.052 314.322 393.081 313.439C394.11 312.556 395.148 311.684 396.195 310.823C397.242 309.962 398.299 309.113 399.365 308.274C400.43 307.435 401.504 306.608 402.587 305.792C403.67 304.976 404.761 304.171 405.861 303.378C406.96 302.585 408.068 301.804 409.185 301.034C410.301 300.265 411.425 299.507 412.557 298.761C413.69 298.015 414.83 297.281 415.977 296.559C417.125 295.838 418.28 295.128 419.443 294.43C420.606 293.733 421.776 293.048 422.953 292.375C424.13 291.702 425.314 291.042 426.505 290.394C427.696 289.747 428.894 289.112 430.099 288.489C431.303 287.866 432.514 287.257 433.732 286.66C434.949 286.063 436.173 285.478 437.402 284.907C438.632 284.336 439.868 283.778 441.109 283.233C442.35 282.688 443.597 282.156 444.85 281.637C446.103 281.118 447.361 280.613 448.624 280.121C449.887 279.629 451.156 279.15 452.43 278.685C453.703 278.219 454.981 277.767 456.264 277.329C457.547 276.89 458.835 276.465 460.127 276.054C461.419 275.643 462.715 275.245 464.015 274.861C465.316 274.477 466.62 274.107 467.928 273.751C469.236 273.394 470.548 273.052 471.863 272.723C473.178 272.394 474.497 272.08 475.819 271.779C477.142 271.478 478.467 271.191 479.795 270.918C481.123 270.645 482.454 270.386 483.787 270.141C485.121 269.896 486.457 269.666 487.795 269.449C489.134 269.232 490.474 269.03 491.817 268.841C493.16 268.653 494.504 268.479 495.851 268.319C497.197 268.159 498.545 268.013 499.894 267.881C501.244 267.75 502.595 267.632 503.946 267.529C505.298 267.426 506.651 267.338 508.005 267.263C518.236 266.714 528.536 267.438 538.748 268.04L541.667 268.115L546.509 269.327L547.024 269.491C553.612 271.523 560.514 272.505 567.163 274.349C587.692 280.043 606.106 289.238 623.776 301.028C628.802 304.381 635.835 308.511 639.599 313.138C639.701 313.406 639.797 313.677 639.905 313.944C641.699 318.364 646.453 322.4 649.138 326.474C652.309 331.286 654.913 337.13 657.259 342.4C677.963 388.907 678.129 444.317 659.974 491.645C640.512 542.378 599.055 583.085 549.613 605.051C548.312 605.632 547.006 606.201 545.694 606.757C544.382 607.314 543.065 607.857 541.743 608.388C540.42 608.919 539.093 609.438 537.761 609.943C536.429 610.449 535.092 610.942 533.75 611.422C532.409 611.902 531.063 612.369 529.712 612.823C528.361 613.277 527.006 613.718 525.647 614.146C524.288 614.575 522.925 614.99 521.558 615.392C520.191 615.794 518.821 616.183 517.446 616.559C516.072 616.935 514.694 617.298 513.312 617.647C511.931 617.996 510.546 618.333 509.159 618.656C507.771 618.979 506.38 619.288 504.986 619.584C503.593 619.881 502.196 620.164 500.797 620.433C499.398 620.703 497.996 620.959 496.592 621.202C495.188 621.445 493.782 621.674 492.373 621.889C490.964 622.105 489.554 622.307 488.142 622.496C486.729 622.685 485.315 622.86 483.9 623.022C482.484 623.183 481.067 623.331 479.648 623.466C478.23 623.601 476.81 623.721 475.389 623.828C473.968 623.935 472.547 624.029 471.124 624.109C469.701 624.19 468.278 624.256 466.854 624.309C465.43 624.362 464.006 624.401 462.581 624.426C461.156 624.451 459.732 624.463 458.307 624.462C456.882 624.46 455.457 624.444 454.033 624.415C452.608 624.386 451.184 624.344 449.76 624.287C448.336 624.231 446.913 624.161 445.491 624.077C444.068 623.994 442.647 623.896 441.226 623.785C439.805 623.674 438.386 623.55 436.968 623.412C435.55 623.274 434.133 623.122 432.718 622.957C431.303 622.792 429.889 622.613 428.477 622.421C427.065 622.228 425.655 622.022 424.247 621.803C422.839 621.584 421.433 621.351 420.03 621.105C418.627 620.859 417.226 620.599 415.827 620.326C405.821 618.451 387.644 611.464 379.061 611.629C372.641 605.051 367.512 597.567 362.446 589.93C341.786 558.783 332.901 528.392 327.054 491.874C326.265 483.841 325.755 475.789 325.526 467.72Z" fill="#F7910D"/>
<path d="M377.047 371.373C378.897 371.561 379.551 371.525 381.118 372.597C381.735 373.674 382.007 374.431 381.904 375.697C381.4 381.907 375.005 388.97 370.347 392.663C368.692 392.826 368.094 392.783 366.621 392.01C366.053 391.026 365.861 390.692 365.935 389.511C366.37 382.592 372.051 375.645 377.047 371.373Z" fill="#FEFEFE"/>
<path d="M574.035 400.795C576.997 399.262 579.909 398.887 583.109 399.992C585.999 400.99 588.641 403.096 590.008 405.864C591.663 409.215 592.564 413.864 591.235 417.467C590.267 420.089 588.207 421.949 585.673 423.036C582.13 424.554 577.892 424.605 574.359 423.037C571.64 421.831 569.152 419.713 568.165 416.829C567.326 414.376 567.531 410.904 568.551 408.555C568.528 408.1 568.501 408.019 568.613 407.506C569.283 404.431 571.608 402.513 574.035 400.795Z" fill="#67270E"/>
<path d="M574.035 400.795C576.094 401.695 578.076 402.407 578.981 404.657C579.607 406.213 579.432 407.893 578.637 409.343C577.918 410.655 576.393 411.573 574.951 411.779C573.475 411.99 571.975 411.631 570.791 410.714C569.982 410.087 569.248 409.299 568.551 408.555C568.528 408.1 568.501 408.019 568.613 407.506C569.283 404.431 571.608 402.513 574.035 400.795Z" fill="#FEFEFE"/>
<path d="M445.692 399.544C448.042 399.436 450.254 399.343 452.541 400.035C452.993 400.172 453.437 400.33 453.873 400.51C454.31 400.691 454.736 400.892 455.152 401.115C455.569 401.338 455.973 401.58 456.365 401.843C456.758 402.106 457.136 402.387 457.5 402.688C457.865 402.988 458.214 403.305 458.547 403.64C458.88 403.975 459.195 404.325 459.494 404.691C459.792 405.057 460.071 405.437 460.332 405.83C460.593 406.224 460.833 406.63 461.054 407.047C462.625 410.056 463.028 413.632 461.831 416.842C460.459 420.522 457.328 422.878 453.917 424.534C451.672 424.798 449.459 425.061 447.217 424.629C446.803 424.548 446.394 424.447 445.989 424.326C445.585 424.205 445.188 424.063 444.798 423.902C444.408 423.741 444.027 423.56 443.655 423.36C443.284 423.161 442.923 422.943 442.573 422.708C442.222 422.472 441.885 422.219 441.56 421.95C441.235 421.68 440.925 421.395 440.629 421.095C440.333 420.794 440.053 420.479 439.788 420.15C439.523 419.821 439.276 419.48 439.045 419.127C438.809 418.757 438.593 418.376 438.396 417.983C438.199 417.59 438.023 417.189 437.868 416.778C437.713 416.367 437.579 415.95 437.467 415.526C437.355 415.101 437.265 414.672 437.197 414.239C437.129 413.805 437.083 413.369 437.06 412.93C437.037 412.492 437.037 412.054 437.059 411.615C437.081 411.176 437.126 410.74 437.193 410.307C437.26 409.873 437.35 409.444 437.461 409.019C438.685 404.402 441.806 401.886 445.692 399.544Z" fill="#67270E"/>
<path d="M444.088 401.818C445.595 402.016 446.927 402.212 448.193 403.117C449.475 404.033 450.027 405.163 450.144 406.715C450.345 409.383 448.354 411.528 446.598 413.235C444.724 412.779 442.771 412.415 441.403 410.941C440.419 409.881 440.053 408.777 440.201 407.328C440.446 404.936 442.433 403.313 444.088 401.818Z" fill="#FEFEFE"/>
<path d="M407.501 445.685C414.297 445.163 421.618 445.411 427.934 448.252C430.068 449.212 432.775 450.765 433.566 453.124C433.923 454.188 433.818 455.32 433.161 456.272C430.297 460.418 422.265 461.645 417.618 462.454C411.076 462.749 404.707 462.616 398.561 460.104C395.372 458.801 392.271 457.046 390.948 453.729C391.028 452.539 390.988 452.035 391.745 451.052C394.667 447.262 403.036 446.29 407.501 445.685Z" fill="#EA6A0A"/>
<path d="M366.252 519.115C367.998 518.841 369.879 518.971 371.501 520.466C372.05 520.972 372.745 521.789 372.948 523.031C373.04 523.591 373.013 524.186 372.844 524.687C372.108 526.87 370.045 527.515 368.851 527.941C367.171 528.096 365.535 528.026 363.956 526.704C363.136 526.018 362.34 525.095 362 523.349C362.021 522.723 362.01 522.457 362.205 521.94C362.955 519.945 365.105 519.434 366.252 519.115Z" fill="#EA6A0A"/>
<path d="M354.025 404.141C356.089 403.805 358.311 403.965 360.229 405.792C360.877 406.41 361.699 407.409 361.939 408.926C362.047 409.611 362.015 410.339 361.816 410.951C360.946 413.618 358.508 414.408 357.097 414.928C355.111 415.118 353.177 415.032 351.311 413.416C350.343 412.578 349.402 411.449 349 409.315C349.024 408.55 349.814 406.82 350.5 406C352 404.208 352.67 404.53 354.025 404.141Z" fill="#EA6A0A"/>
<path d="M566.252 297.09C567.998 296.876 569.879 296.977 571.501 298.14C572.05 298.533 572.745 299.169 572.948 300.135C573.04 300.57 573.013 301.034 572.844 301.424C572.108 303.121 570.045 303.623 568.851 303.954C567.171 304.075 565.535 304.021 563.956 302.992C563.136 302.459 562.34 301.74 562 300.383C562.021 299.895 562.01 299.689 562.205 299.287C562.955 297.735 565.105 297.337 566.252 297.09Z" fill="#EA6A0A"/>
<path d="M469.252 598.141C470.998 597.805 472.879 597.965 474.501 599.792C475.05 600.41 475.745 601.409 475.948 602.926C476.04 603.611 476.013 604.339 475.844 604.951C475.108 607.618 473.045 608.408 471.851 608.928C470.171 609.118 468.535 609.032 466.956 607.416C466.136 606.578 465.34 605.449 465 603.315C465.021 602.55 465.01 602.226 465.205 601.593C465.955 599.155 468.105 598.53 469.252 598.141Z" fill="#EA6A0A"/>
<path d="M591.252 509.141C592.998 508.805 594.879 508.965 596.501 510.792C597.05 511.41 597.745 512.409 597.948 513.926C598.04 514.611 598.013 515.339 597.844 515.951C597.108 518.618 595.045 519.408 593.851 519.928C592.171 520.118 590.535 520.032 588.956 518.416C588.136 517.578 587.34 516.449 587 514.315C587.021 513.55 587.01 513.226 587.205 512.593C587.955 510.155 590.105 509.53 591.252 509.141Z" fill="#EA6A0A"/>
<path d="M498.252 295.141C499.998 294.805 501.879 294.965 503.501 296.792C504.05 297.41 504.745 298.409 504.948 299.926C505.04 300.611 505.013 301.339 504.844 301.951C504.108 304.618 502.045 305.408 500.851 305.928C499.171 306.118 497.535 306.032 495.956 304.416C495.136 303.578 494.34 302.449 494 300.315C494.021 299.55 494.01 299.226 494.205 298.593C494.955 296.155 497.105 295.53 498.252 295.141Z" fill="#EA6A0A"/>
<path d="M655.252 376.141C656.998 375.805 658.879 375.965 660.501 377.792C661.05 378.41 661.745 379.409 661.948 380.926C662.04 381.611 662.013 382.339 661.844 382.951C661.108 385.618 659.045 386.408 657.851 386.928C656.171 387.118 654.535 387.032 652.956 385.416C652.136 384.578 651.34 383.449 651 381.315C651.021 380.55 651.01 380.226 651.205 379.593C651.955 377.155 654.105 376.53 655.252 376.141Z" fill="#EA6A0A"/>
<path d="M396.799 570.192C399.179 569.734 401.744 569.952 403.956 572.444C404.704 573.286 405.652 574.648 405.929 576.718C406.054 577.651 406.018 578.644 405.787 579.479C404.784 583.116 401.97 584.192 400.343 584.902C398.051 585.161 395.82 585.044 393.667 582.84C392.55 581.697 391.463 580.158 391 577.248C391.028 576.204 391.014 575.762 391.279 574.9C392.303 571.575 395.234 570.723 396.799 570.192Z" fill="#EA6A0A"/>
<path d="M545.799 344.192C548.179 343.734 550.744 343.952 552.956 346.444C553.704 347.286 554.652 348.648 554.929 350.718C555.054 351.651 555.018 352.644 554.787 353.479C553.784 357.116 550.97 358.192 549.343 358.902C547.051 359.161 544.82 359.044 542.667 356.84C541.55 355.697 540.463 354.158 540 351.248C540.028 350.204 540.014 349.762 540.279 348.9C541.303 345.575 544.234 344.723 545.799 344.192Z" fill="#EA6A0A"/>
<path d="M603.048 447.686C609.375 447.292 615.831 447.652 621.802 449.981C624.607 451.074 628.354 453.151 629.288 456.269C629.679 457.574 629.371 458.732 628.663 459.851C625.944 464.148 616.747 465.174 612.153 465.838C605.562 466.773 597.478 466.296 591.594 462.933C589.512 461.743 587.04 459.638 586.656 457.107C586.407 455.464 586.721 454.048 587.757 452.754C590.967 448.744 598.307 448.293 603.048 447.686Z" fill="#EA6A0A"/>
<path d="M472.441 444.484C500.86 444.566 529.293 444.231 557.709 444.575C555.813 453.415 553.845 462.02 550.834 470.564C539.753 466.604 528.225 462.277 516.753 467.733C513.762 469.156 511.283 471.117 508.872 473.353C503.781 468.957 498.335 465.178 491.236 465.642C484.797 466.063 480.25 469.87 476.196 474.51C473.977 464.505 472.798 454.709 472.441 444.484Z" fill="#B80B09"/>
<path d="M508.872 473.353C511.283 471.117 513.762 469.156 516.753 467.733C528.225 462.277 539.753 466.604 550.834 470.564C544.718 484.602 535.274 501.173 520.172 507.025C513.579 509.58 506.42 509.204 500.007 506.287C489.343 501.436 482.011 491.229 478.03 480.494C477.309 478.551 476.698 476.52 476.196 474.51C480.25 469.87 484.797 466.063 491.236 465.642C498.335 465.178 503.781 468.957 508.872 473.353Z" fill="#E90F1A"/>
<path d="M458.82 295.579C461.446 295.447 464.328 295.195 466.852 296.068C470.682 297.391 472.283 300.575 473.962 303.956C473.416 305.652 472.812 307.361 472.092 308.992C464.795 325.541 435.431 345.328 419.608 353.881C413.18 357.356 406.576 360.117 399.767 362.722C396.138 363.596 392.224 364.181 388.571 363.044C387.146 362.601 385.849 361.667 385.322 360.219C383.741 355.87 387.997 347.875 390.287 344.119C405.398 319.336 430.93 302.228 458.82 295.579Z" fill="#FEFEFE"/>
<ellipse cx="514" cy="887" rx="234" ry="30" fill="url(#paint0_radial_60_431)"/>
<defs>
<radialGradient id="paint0_radial_60_431" cx="0" cy="0" r="1" gradientUnits="userSpaceOnUse" gradientTransform="translate(514 887) scale(234 30)">
<stop stop-color="#404040"/>
<stop offset="0.39125" stop-color="#404040" stop-opacity="0.5"/>
<stop offset="1" stop-color="#404040" stop-opacity="0"/>
</radialGradient>
</defs>
</svg>
