<svg width="428" height="926" viewBox="0 0 428 926" fill="none" xmlns="http://www.w3.org/2000/svg">
<rect width="428" height="926" fill="white"/>
<path d="M-102 464H251.189H255.127H516V1089H418.163H10.3493H-102V711.546V711.279V464ZM-102 464V711.279V711.546C-100.471 711.332 -97.9808 708.558 -96.7951 707.492C-80.0945 697.628 -64.1442 693.975 -45.1193 698.984C-35.501 701.515 -26.1767 706.09 -17.7595 711.412C-21.354 717.743 -23.6522 724.267 -23.523 731.629C-23.508 739.755 -21.905 747.286 -17.436 754.171C-16.4987 755.615 -14.6761 757.076 -14.3617 758.796C-11.3701 760.177 -2.86652 759.421 0.839673 759.384L47.0074 759.395C58.2706 759.156 69.534 759.149 80.7976 759.374C93.5723 759.369 106.399 759.582 119.169 759.315C129.683 759.417 140.198 759.447 150.713 759.406C163.245 759.408 175.805 759.57 188.333 759.388L206.648 759.408L252.552 759.41C253.743 756.165 255.273 753.087 256.339 749.782C256.568 749.063 256.784 748.339 256.986 747.611C257.189 746.883 257.378 746.152 257.555 745.417C257.731 744.682 257.894 743.945 258.043 743.204C258.192 742.463 258.328 741.72 258.451 740.974C258.573 740.228 258.682 739.48 258.777 738.73C258.873 737.98 258.955 737.229 259.023 736.476C259.091 735.723 259.145 734.969 259.186 734.214C259.227 733.459 259.254 732.704 259.267 731.948C259.281 731.192 259.281 730.436 259.267 729.68C259.253 728.924 259.225 728.168 259.184 727.414C259.143 726.659 259.088 725.905 259.019 725.152C258.95 724.399 258.868 723.648 258.772 722.898C258.676 722.148 258.567 721.401 258.444 720.655C258.321 719.909 258.185 719.166 258.035 718.425C257.885 717.684 257.722 716.946 257.545 716.212C257.368 715.477 257.179 714.746 256.975 714.018C256.107 710.844 253.894 707.826 253.211 704.732C253.187 704.623 253.178 704.511 253.162 704.401C250.678 700.869 247.705 697.862 244.555 694.939C239.642 692.483 235.066 690.896 229.66 689.953L227.239 689.747C224.847 681.39 221.614 673.229 218.684 665.047C216.94 660.445 215.061 655.693 214.175 650.833L214.257 647.754C214.251 640.495 214.125 633.233 214.289 625.975C218.258 625.217 232.395 617.92 236.805 615.883L237.502 615.304C248.217 610.813 258.598 605.395 269.369 601.107C270.383 602.922 269.799 618.607 269.743 621.832C273.898 619.338 287.708 612.958 292.063 612.28C292.24 605.033 292.172 597.763 292.195 590.512C292.376 586.838 292.081 582.99 292.064 579.297L292.052 554.265L292.076 526.842C292.081 521.705 292.251 516.489 291.967 511.362L292.158 509.805C291.89 507.994 291.986 505.992 291.889 504.156C291.659 499.775 290.917 495.964 289.495 491.82C283.001 494.402 276.904 497.863 270.343 500.273C270.586 493.101 268.929 485.349 266.843 478.501C265.82 475.143 262.257 468.981 262.485 465.827C260.035 465.203 257.539 464.774 255.127 464H251.189H-102ZM255.127 464C257.539 464.774 260.035 465.203 262.485 465.827C262.257 468.981 265.82 475.143 266.843 478.501C268.929 485.349 270.586 493.101 270.343 500.273C276.904 497.863 283.001 494.402 289.495 491.82C290.917 495.964 291.659 499.775 291.889 504.156C291.986 505.992 291.89 507.994 292.158 509.805L291.967 511.362C292.251 516.489 292.081 521.705 292.076 526.842L292.052 554.265L292.064 579.297C292.081 582.99 292.376 586.838 292.195 590.512C292.172 597.763 292.24 605.033 292.063 612.28C287.708 612.958 273.898 619.338 269.743 621.832C269.799 618.607 270.383 602.922 269.369 601.107C258.598 605.395 248.217 610.813 237.502 615.304L236.805 615.883C232.395 617.92 218.258 625.217 214.289 625.975C214.125 633.233 214.251 640.495 214.257 647.754L214.175 650.833C215.061 655.693 216.94 660.445 218.684 665.047C221.614 673.229 224.847 681.39 227.239 689.747L229.66 689.953C235.066 690.896 239.642 692.483 244.555 694.939C247.705 697.862 250.678 700.869 253.162 704.401C253.178 704.511 253.187 704.623 253.211 704.732C253.894 707.826 256.107 710.844 256.975 714.018C257.179 714.746 257.368 715.477 257.545 716.212C257.722 716.946 257.885 717.684 258.035 718.425C258.185 719.166 258.321 719.909 258.444 720.655C258.567 721.401 258.676 722.148 258.772 722.898C258.868 723.648 258.95 724.399 259.019 725.152C259.088 725.905 259.143 726.659 259.184 727.414C259.225 728.168 259.253 728.924 259.267 729.68C259.281 730.436 259.281 731.192 259.267 731.948C259.254 732.704 259.227 733.459 259.186 734.214C259.145 734.969 259.091 735.723 259.023 736.476C258.955 737.229 258.873 737.98 258.777 738.73C258.682 739.48 258.573 740.228 258.451 740.974C258.328 741.72 258.192 742.463 258.043 743.204C257.894 743.945 257.731 744.682 257.555 745.417C257.378 746.152 257.189 746.883 256.986 747.611C256.784 748.339 256.568 749.063 256.339 749.782C255.273 753.087 253.743 756.165 252.552 759.41L271.79 759.429C281.484 759.542 291.159 759.417 300.849 759.458C305.021 759.475 309.678 760.058 313.801 759.53C318.748 759.242 323.759 759.403 328.713 759.406L353.767 759.409C364.947 759.429 376.147 759.3 387.323 759.495C391.982 759.818 396.728 759.656 401.398 759.66C408.039 759.667 414.686 759.75 421.326 759.662C427.093 759.585 433.159 759.329 438.894 759.943C440.57 759.86 442.189 759.789 443.865 759.942L443.733 1031.2L443.663 1050.98C443.64 1055.75 443.767 1060.56 443.193 1065.31C442.512 1070.93 440.187 1076.02 436.236 1080.06C431.209 1085.22 424.941 1087.34 418.163 1089H516V464H255.127ZM-96.7951 707.492C-97.9808 708.558 -100.471 711.332 -102 711.546V1089H10.3493C4.11797 1087.26 0.925971 1087.75 -4.61732 1083.28C-10.6645 1078.42 -13.7008 1071.49 -14.5204 1063.86C-15.0684 1058.75 -14.8765 1053.47 -14.859 1048.33L-14.8173 1026.99L-14.9091 807.968L-15.0575 777.975C-15.1028 773.628 -15.9658 763.672 -14.9411 759.883C-14.8246 759.455 -14.6327 759.139 -14.3617 758.796C-14.6761 757.076 -16.4987 755.615 -17.436 754.171C-21.905 747.286 -23.508 739.755 -23.523 731.629C-23.6522 724.267 -21.354 717.743 -17.7595 711.412C-26.1767 706.09 -35.501 701.515 -45.1193 698.984C-64.1442 693.975 -80.0945 697.628 -96.7951 707.492Z" fill="#EFC880"/>
<path d="M188.333 759.388L206.648 759.408L252.552 759.41L271.79 759.429C271.631 759.645 271.543 759.727 271.477 760.023C271.113 761.642 271.497 764.422 271.511 766.126L271.585 782.599L271.579 836.166C271.587 846.166 271.871 856.237 271.541 866.226C271.322 872.849 269.933 878.1 264.989 882.713C264.613 883.069 264.224 883.412 263.824 883.74C263.423 884.068 263.011 884.382 262.589 884.68C262.166 884.978 261.733 885.261 261.29 885.528C260.847 885.795 260.396 886.045 259.935 886.279C259.474 886.513 259.006 886.73 258.529 886.93C258.053 887.129 257.571 887.312 257.082 887.477C256.593 887.641 256.098 887.788 255.599 887.917C255.099 888.046 254.595 888.157 254.088 888.249C249.4 889.137 244.322 888.803 239.559 888.805L188.573 888.806C182.661 888.816 176.664 889.054 170.761 888.766C164.304 888.451 159.761 886.274 155.453 881.407C152.968 878.601 151.548 875.319 151.037 871.598C150.286 866.128 150.799 860.285 150.846 854.771L150.871 827.906L150.756 784.876C150.694 776.445 150.239 767.815 150.713 759.406C163.245 759.408 175.805 759.57 188.333 759.388Z" fill="#D6B373"/>
<path d="M262.485 465.827C273.759 469.752 282.646 477.122 287.909 488.069C288.498 489.294 289.005 490.552 289.495 491.82C283.001 494.402 276.904 497.863 270.343 500.273C270.586 493.101 268.929 485.349 266.843 478.501C265.82 475.143 262.257 468.981 262.485 465.827Z" fill="#EB8B01"/>
<path d="M447.113 666.036L447.581 666.415C448.523 668.144 449.324 670.414 449.713 672.339C462.654 676.554 476.08 691.456 482.163 703.465C488.701 716.368 490.171 729.766 490.04 744.061L487.862 741.682C477.289 731.656 463.053 723.689 448.698 721.1C447.676 717.383 448.134 713.344 447.018 709.53C445.438 704.132 442.037 698.244 436.932 695.598C433.344 693.738 429.581 693.76 425.818 694.936C424.438 694.002 422.134 687.07 421.154 685.142C420.338 683.536 419.367 682.052 418.357 680.565C424.093 675.522 432.595 671.884 439.642 669.062C441.89 668.163 445.246 667.428 447.113 666.036Z" fill="#53C302"/>
<path d="M449.713 672.339C462.654 676.554 476.08 691.456 482.163 703.465C488.701 716.368 490.171 729.766 490.04 744.061L487.862 741.682C488.362 737.256 482.518 727.927 480.213 724.123C466.488 701.471 451.58 692.362 426.459 686.186C431.874 683.557 443.616 681.806 447.059 678.705C449.077 676.886 449.552 674.985 449.713 672.339Z" fill="#94DF16"/>
<path d="M461.185 615.081C464.979 614.365 468.805 613.575 472.66 613.297C486.612 612.287 500.148 616.588 511.733 624.316C501.294 642.708 487.112 658.194 466.189 663.924C459.494 665.758 454.08 665.372 447.581 666.415L447.113 666.036C445.765 664.057 444.407 662.134 442.397 660.788C437.396 657.44 430.379 659.468 424.957 660.531C427.055 657.414 429.993 653.65 429.934 649.695C429.877 645.92 427.304 643.362 424.783 640.95C433.53 632.102 439.25 625.125 450.89 619.37C454.136 617.765 457.633 616.761 460.903 615.216L461.185 615.081Z" fill="#94DF16"/>
<path d="M390.869 680.848C396.182 678.875 401.566 676.391 407.318 676.252C411.611 676.149 415.256 677.594 418.357 680.565C419.367 682.052 420.338 683.536 421.154 685.142C422.134 687.07 424.438 694.002 425.818 694.936C429.581 693.76 433.344 693.738 436.932 695.598C442.037 698.244 445.438 704.132 447.018 709.53C448.134 713.344 447.676 717.383 448.698 721.1C448.636 722.782 448.53 724.461 448.38 726.138C448.229 727.814 448.035 729.486 447.797 731.152C447.559 732.818 447.277 734.476 446.952 736.128C446.626 737.778 446.258 739.42 445.846 741.051C445.435 742.682 444.98 744.301 444.483 745.907C443.987 747.514 443.448 749.106 442.867 750.684C442.287 752.262 441.665 753.822 441.002 755.367C440.339 756.911 439.636 758.437 438.894 759.943C433.159 759.329 427.093 759.585 421.326 759.662C414.686 759.75 408.039 759.667 401.398 759.66C396.728 759.656 391.982 759.818 387.323 759.495C376.147 759.3 364.947 759.429 353.767 759.409C354.237 757.713 355.262 755.937 355.988 754.313C357.962 749.892 359.944 745.497 362.07 741.147C367.244 730.562 372.146 719.823 377.431 709.3C381.726 700.747 388.191 689.814 390.869 680.848Z" fill="#EB8B01"/>
<path d="M425.818 694.936C429.581 693.76 433.344 693.738 436.932 695.598C442.037 698.244 445.438 704.132 447.018 709.53C448.134 713.344 447.676 717.383 448.698 721.1C448.636 722.782 448.53 724.461 448.38 726.138C448.229 727.814 448.035 729.486 447.797 731.152C447.559 732.818 447.277 734.476 446.952 736.128C446.626 737.778 446.258 739.42 445.846 741.051C445.435 742.682 444.98 744.301 444.483 745.907C443.987 747.514 443.448 749.106 442.867 750.684C442.287 752.262 441.665 753.822 441.002 755.367C440.339 756.911 439.636 758.437 438.894 759.943C433.159 759.329 427.093 759.585 421.326 759.662C414.686 759.75 408.039 759.667 401.398 759.66C396.728 759.656 391.982 759.818 387.323 759.495C395.97 759.218 404.68 759.449 413.333 759.472C415.209 756.494 417.013 753.473 418.745 750.408C427.19 735.363 431.269 716.582 426.501 699.608C426.181 698.468 425.293 695.946 425.818 694.936Z" fill="#E6621C"/>
<path d="M415.422 588.864C415.533 588.711 415.646 588.558 415.755 588.403C418.275 584.831 420.089 580.128 422.05 576.204C425.336 569.629 428.85 563.169 432.155 556.601C436.875 547.226 441.383 534.671 448.889 527.361C452.105 524.23 456.28 522.297 460.644 521.494C461.075 521.411 461.508 521.34 461.942 521.28C462.376 521.22 462.812 521.17 463.249 521.132C463.685 521.094 464.123 521.067 464.561 521.051C464.999 521.035 465.437 521.031 465.876 521.037C466.314 521.044 466.752 521.061 467.189 521.09C467.627 521.119 468.063 521.159 468.499 521.21C468.934 521.26 469.368 521.322 469.801 521.395C470.233 521.468 470.664 521.552 471.092 521.647C471.52 521.742 471.946 521.848 472.369 521.965C472.792 522.081 473.212 522.208 473.628 522.346C474.045 522.484 474.458 522.633 474.867 522.792C475.276 522.951 475.682 523.12 476.082 523.299C476.483 523.479 476.879 523.669 477.271 523.868C477.662 524.068 478.048 524.278 478.429 524.497C478.81 524.716 479.186 524.945 479.555 525.183C479.925 525.422 480.288 525.67 480.645 525.927C486.056 529.811 489.778 535.508 490.829 542.174C491.322 545.309 491.367 549.423 490.597 552.508C489.611 556.462 487.34 560.588 485.591 564.26L478.048 580.096C474.124 588.376 470.34 596.715 466.305 604.942C464.649 608.319 463.077 611.839 461.185 615.081L460.903 615.216C457.633 616.761 454.136 617.765 450.89 619.37C439.25 625.125 433.53 632.102 424.783 640.95C427.304 643.362 429.877 645.92 429.934 649.695C429.993 653.65 427.055 657.414 424.957 660.531C430.379 659.468 437.396 657.44 442.397 660.788C444.407 662.134 445.765 664.057 447.113 666.036C445.246 667.428 441.89 668.163 439.642 669.062C432.595 671.884 424.093 675.522 418.357 680.565C415.256 677.594 411.611 676.149 407.318 676.252C401.566 676.391 396.182 678.875 390.869 680.848L390.848 680.166C390.842 678.792 390.775 677.422 390.648 676.054C389.964 668.783 386.444 662.358 380.907 657.732C381.765 654.778 382.613 651.827 383.301 648.828C384.125 645.241 384.868 636.166 387.098 633.608C388.802 631.653 393.214 632.093 395.618 632.047C397.732 628.789 399.355 623.694 400.939 620.047C403.814 613.424 406.933 606.905 409.764 600.264C411.171 596.962 412.487 592.666 414.698 589.856C414.895 589.605 415.095 589.356 415.273 589.092C415.324 589.016 415.373 588.94 415.422 588.864Z" fill="url(#paint0_linear_15_130)"/>
<path d="M395.618 632.047C399.096 633.199 401.036 634.846 403.289 637.701C402.144 645.97 399.238 653.246 396.71 661.102C395.571 664.637 394.737 668.269 393.635 671.816C392.807 674.485 391.236 677.458 390.848 680.166C390.842 678.792 390.775 677.422 390.648 676.054C389.964 668.783 386.444 662.358 380.907 657.732C381.765 654.778 382.613 651.827 383.301 648.828C384.125 645.241 384.868 636.166 387.098 633.608C388.802 631.653 393.214 632.093 395.618 632.047Z" fill="#53C302"/>
<path d="M374.564 553.5C376.319 550.392 377.465 546.989 378.748 543.667C381.006 537.913 383.231 532.146 385.423 526.366C387.465 520.945 389.304 515.227 392.166 510.184C393.799 507.309 395.857 504.646 398.383 502.516C404.513 497.347 412.104 497.362 419.608 498.067C426.718 500.168 432.763 503.822 436.387 510.582C439.98 517.283 440.222 524.208 438.084 531.411C436.043 538.292 432.831 544.936 430.079 551.552C426.793 559.451 423.721 567.45 420.533 575.39C418.868 579.538 416.144 584.475 415.422 588.864C415.373 588.94 415.324 589.016 415.273 589.092C415.095 589.356 414.895 589.605 414.698 589.856C412.487 592.666 411.171 596.962 409.764 600.264C406.933 606.905 403.814 613.424 400.939 620.047C399.355 623.694 397.732 628.789 395.618 632.047C393.214 632.093 388.802 631.653 387.098 633.608C384.868 636.166 384.125 645.241 383.301 648.828C382.613 651.827 381.765 654.778 380.907 657.732C379.208 656.777 377.544 655.949 375.737 655.227L375.44 654.572C377.392 643.263 382.867 623.588 382.223 613.235C381.892 607.887 380.424 603.029 378.558 598.058C374.827 590.519 369.735 585.833 363.116 580.945C358.282 578.191 353.132 575.909 347.628 574.969L347.573 574.872C344.049 573.687 339.687 573.825 335.989 573.337C333.493 573.636 330.646 574.364 328.282 573.244C328.013 569.116 328.766 564.507 329.059 560.359C329.513 553.892 329.423 547.038 330.745 540.699C332.15 533.963 335.604 528.697 341.387 524.99C341.716 524.778 342.049 524.575 342.387 524.38C342.726 524.185 343.069 523.999 343.416 523.821C343.764 523.643 344.115 523.474 344.471 523.314C344.827 523.153 345.186 523.002 345.55 522.86C345.913 522.717 346.279 522.584 346.649 522.46C347.019 522.336 347.391 522.221 347.766 522.116C348.142 522.011 348.519 521.915 348.899 521.828C349.279 521.741 349.661 521.665 350.045 521.597C350.428 521.53 350.814 521.472 351.2 521.424C351.587 521.375 351.974 521.337 352.363 521.308C352.751 521.279 353.14 521.26 353.529 521.251C353.919 521.241 354.308 521.241 354.698 521.252C355.087 521.262 355.476 521.281 355.864 521.311C356.253 521.34 356.64 521.38 357.026 521.428C357.413 521.477 357.798 521.536 358.182 521.604C358.565 521.672 358.947 521.749 359.327 521.837C364.888 523.156 369.958 526.394 372.981 531.371C377.284 538.456 376.415 545.804 374.564 553.5Z" fill="url(#paint1_linear_15_130)"/>
<path d="M335.989 573.337C339.39 564.703 340.161 543.49 346.136 537.73C348.96 535.008 352.458 534.443 356.191 534.504C354.549 544.459 351.667 554.343 349.559 564.229C348.835 567.628 347.781 571.401 347.573 574.872C344.049 573.687 339.687 573.825 335.989 573.337Z" fill="#FBA301"/>
<path d="M356.191 534.504C360.676 535.713 364.716 537.5 367.22 541.734C368.6 544.068 369.204 546.69 369.272 549.389C369.457 556.812 365.171 573.216 363.116 580.945C358.282 578.191 353.132 575.909 347.628 574.969L347.573 574.872C347.781 571.401 348.835 567.628 349.559 564.229C351.667 554.343 354.549 544.459 356.191 534.504Z" fill="#EB8B01"/>
<path d="M419.608 498.067C426.718 500.168 432.763 503.822 436.387 510.582C439.98 517.283 440.222 524.208 438.084 531.411C436.043 538.292 432.831 544.936 430.079 551.552C426.793 559.451 423.721 567.45 420.533 575.39C418.868 579.538 416.144 584.475 415.422 588.864C415.373 588.94 415.324 589.016 415.273 589.092C415.095 589.356 414.895 589.605 414.698 589.856C412.487 592.666 411.171 596.962 409.764 600.264C406.933 606.905 403.814 613.424 400.939 620.047C399.355 623.694 397.732 628.789 395.618 632.047C393.214 632.093 388.802 631.653 387.098 633.608C384.868 636.166 384.125 645.241 383.301 648.828C382.613 651.827 381.765 654.778 380.907 657.732C379.208 656.777 377.544 655.949 375.737 655.227L375.44 654.572C377.392 643.263 382.867 623.588 382.223 613.235C381.892 607.887 380.424 603.029 378.558 598.058L408.927 525.418C410.529 521.47 412.165 517.537 413.834 513.618C416.058 508.501 418.512 503.59 419.608 498.067Z" fill="#2B8017"/>
<path d="M328.282 573.244C330.646 574.364 333.493 573.636 335.989 573.337C339.687 573.825 344.049 573.687 347.573 574.872L347.628 574.969C353.132 575.909 358.282 578.191 363.116 580.945C369.735 585.833 374.827 590.519 378.558 598.058C380.424 603.029 381.892 607.887 382.223 613.235C382.867 623.588 377.392 643.263 375.44 654.572L375.737 655.227C377.544 655.949 379.208 656.777 380.907 657.732C386.444 662.358 389.964 668.783 390.648 676.054C390.775 677.422 390.842 678.792 390.848 680.166L390.869 680.848C388.191 689.814 381.726 700.747 377.431 709.3C372.146 719.823 367.244 730.562 362.07 741.147C359.944 745.497 357.962 749.892 355.988 754.313C355.262 755.937 354.237 757.713 353.767 759.409L328.713 759.406C323.759 759.403 318.748 759.242 313.801 759.53C309.678 760.058 305.021 759.475 300.849 759.458C291.159 759.417 281.484 759.542 271.79 759.429L252.552 759.41C253.743 756.165 255.273 753.087 256.339 749.782C256.568 749.063 256.784 748.339 256.986 747.611C257.189 746.883 257.378 746.152 257.555 745.417C257.731 744.682 257.894 743.945 258.043 743.204C258.192 742.463 258.328 741.72 258.451 740.974C258.573 740.228 258.682 739.48 258.777 738.73C258.873 737.98 258.955 737.229 259.023 736.476C259.091 735.723 259.145 734.969 259.186 734.214C259.227 733.459 259.254 732.704 259.267 731.948C259.281 731.192 259.281 730.436 259.267 729.68C259.253 728.924 259.225 728.168 259.184 727.414C259.143 726.659 259.088 725.905 259.019 725.152C258.95 724.399 258.868 723.648 258.772 722.898C258.676 722.148 258.567 721.401 258.444 720.655C258.321 719.909 258.185 719.166 258.035 718.425C257.885 717.684 257.722 716.946 257.545 716.212C257.368 715.477 257.179 714.746 256.975 714.018C256.107 710.844 253.894 707.826 253.211 704.732C253.187 704.623 253.178 704.511 253.162 704.401C250.678 700.869 247.705 697.862 244.555 694.939C239.642 692.483 235.066 690.896 229.66 689.953L227.239 689.747C224.847 681.39 221.614 673.229 218.684 665.047C216.94 660.445 215.061 655.693 214.175 650.833L214.257 647.754C214.251 640.495 214.125 633.233 214.289 625.975C218.258 625.217 232.395 617.92 236.805 615.883L237.502 615.304C248.217 610.813 258.598 605.395 269.369 601.107C270.383 602.922 269.799 618.607 269.743 621.832C273.898 619.338 287.708 612.958 292.063 612.28C292.049 618.513 291.685 624.978 292.136 631.186C293.71 628.391 294.405 618.342 294.964 614.676C295.716 609.749 296.48 604.746 298.017 599.997C301.419 589.495 309.263 581.405 319.273 577.141C322.083 575.945 325.404 575.429 328.051 574.067L328.282 573.244Z" fill="#94DF16"/>
<path d="M291.842 631.592C291.206 639.835 289.62 648.382 288.071 656.505L287.806 655.703C285.15 654.818 273.434 661.141 270.699 662.538C270.195 662.795 269.801 663.095 269.368 663.456C269.588 660.356 270.014 644.101 269.139 642.09C269.176 641.682 269.36 641.588 269.617 641.285C275.669 640.03 285.785 634.305 291.842 631.592Z" fill="#EB8B01"/>
<path d="M269.743 621.832C273.898 619.338 287.708 612.958 292.063 612.28C292.049 618.513 291.685 624.978 292.136 631.186L291.842 631.592C285.785 634.305 275.669 640.03 269.617 641.285C270.102 634.903 269.744 628.25 269.743 621.832Z" fill="#E6621C"/>
<path d="M269.368 663.456C269.801 663.095 270.195 662.795 270.699 662.538C273.434 661.141 285.15 654.818 287.806 655.703L288.071 656.505C287.582 659.58 287.034 662.645 286.427 665.699C290.152 666.549 293.15 667.711 296.532 669.501C292.101 673.172 287.858 676.955 285.555 682.397C285.709 685.973 284.581 689.463 284.444 693.014C283.472 692.834 282.494 692.522 281.534 692.275C275.179 691.77 270.068 692.019 264.052 694.229C264.7 688.905 264.192 681.535 265.782 676.668C265.89 672.56 265.294 668.426 265.24 664.307C266.647 664.284 267.993 663.75 269.368 663.456Z" fill="#32AA05"/>
<path d="M285.555 682.397C285.709 685.973 284.581 689.463 284.444 693.014C283.472 692.834 282.494 692.522 281.534 692.275C282.391 688.956 283.594 685.221 285.555 682.397Z" fill="#EB8B01"/>
<path d="M269.368 663.456C269.801 663.095 270.195 662.795 270.699 662.538C273.434 661.141 285.15 654.818 287.806 655.703L288.071 656.505C287.582 659.58 287.034 662.645 286.427 665.699C279.469 666.219 273.482 667.397 268.637 672.987C267.62 674.161 266.792 675.5 265.782 676.668C265.89 672.56 265.294 668.426 265.24 664.307C266.647 664.284 267.993 663.75 269.368 663.456Z" fill="#EC7E00"/>
<path d="M330.446 658.625C338.819 653.226 347.56 649.059 357.644 648.518C364.488 648.15 370.318 649.97 375.44 654.572L375.737 655.227C359.59 655.843 345.558 663.49 334.69 675.398C327.692 683.066 322.355 692.544 318.226 702.063C316.35 706.39 314.744 711.826 311.893 715.529L311.659 715.841C311.611 715.902 311.562 715.963 311.514 716.025C310.413 714.794 309.513 713.045 308.551 711.67C306.438 708.619 304.151 705.709 301.688 702.94C302.91 701.643 305.447 694.212 306.464 691.942C312.294 678.926 319.813 668.081 330.446 658.625Z" fill="#E6621C"/>
<path d="M264.052 694.229C270.068 692.019 275.179 691.77 281.534 692.275C282.494 692.522 283.472 692.834 284.444 693.014C290.918 695.48 296.621 698.02 301.688 702.94C304.151 705.709 306.438 708.619 308.551 711.67C309.513 713.045 310.413 714.794 311.514 716.025C319.03 730.473 318.896 743.182 314.15 758.483C314.041 758.834 313.924 759.183 313.801 759.53C309.678 760.058 305.021 759.475 300.849 759.458C291.159 759.417 281.484 759.542 271.79 759.429L252.552 759.41C253.743 756.165 255.273 753.087 256.339 749.782C256.568 749.063 256.784 748.339 256.986 747.611C257.189 746.883 257.378 746.152 257.555 745.417C257.731 744.682 257.894 743.945 258.043 743.204C258.192 742.463 258.328 741.72 258.451 740.974C258.573 740.228 258.682 739.48 258.777 738.73C258.873 737.98 258.955 737.229 259.023 736.476C259.091 735.723 259.145 734.969 259.186 734.214C259.227 733.459 259.254 732.704 259.267 731.948C259.281 731.192 259.281 730.436 259.267 729.68C259.253 728.924 259.225 728.168 259.184 727.414C259.143 726.659 259.088 725.905 259.019 725.152C258.95 724.399 258.868 723.648 258.772 722.898C258.676 722.148 258.567 721.401 258.444 720.655C258.321 719.909 258.185 719.166 258.035 718.425C257.885 717.684 257.722 716.946 257.545 716.212C257.368 715.477 257.179 714.746 256.975 714.018C256.107 710.844 253.894 707.826 253.211 704.732C253.187 704.623 253.178 704.511 253.162 704.401C256.334 700.197 259.692 697.146 264.052 694.229Z" fill="#C83414"/>
<path d="M269.369 601.107C270.383 602.922 269.799 618.607 269.743 621.832C269.744 628.25 270.102 634.903 269.617 641.285C269.36 641.588 269.176 641.682 269.139 642.09C270.014 644.101 269.588 660.356 269.368 663.456C267.993 663.75 266.647 664.284 265.24 664.307C265.294 668.426 265.89 672.56 265.782 676.668C264.192 681.535 264.7 688.905 264.052 694.229C259.692 697.146 256.334 700.197 253.162 704.401C250.678 700.869 247.705 697.862 244.555 694.939C239.642 692.483 235.066 690.896 229.66 689.953L227.239 689.747C224.847 681.39 221.614 673.229 218.684 665.047C216.94 660.445 215.061 655.693 214.175 650.833L214.257 647.754C214.251 640.495 214.125 633.233 214.289 625.975C218.258 625.217 232.395 617.92 236.805 615.883L237.502 615.304C248.217 610.813 258.598 605.395 269.369 601.107Z" fill="#FBA301"/>
<path d="M269.743 621.832C269.744 628.25 270.102 634.903 269.617 641.285C269.36 641.588 269.176 641.682 269.139 642.09C263.302 644.617 257.483 647.186 251.682 649.796C247.156 651.87 242.681 654.188 238.005 655.888C237.898 655.815 237.781 655.756 237.684 655.671C236.937 655.011 237.245 639.147 237.115 636.799C245.039 633.536 252.73 629.489 260.508 625.874C263.476 624.495 266.601 622.726 269.743 621.832Z" fill="#EC7E00"/>
<path d="M236.805 615.883C237.626 622.863 236.586 629.837 237.115 636.799C237.245 639.147 236.937 655.011 237.684 655.671C237.781 655.756 237.898 655.815 238.005 655.888L237.17 656.292C230.99 659.005 224.429 661.462 218.684 665.047C216.94 660.445 215.061 655.693 214.175 650.833L214.257 647.754C214.251 640.495 214.125 633.233 214.289 625.975C218.258 625.217 232.395 617.92 236.805 615.883Z" fill="#F5B52F"/>
<path d="M237.115 636.799C237.245 639.147 236.937 655.011 237.684 655.671C237.781 655.756 237.898 655.815 238.005 655.888L237.17 656.292C230.99 659.005 224.429 661.462 218.684 665.047C216.94 660.445 215.061 655.693 214.175 650.833L214.257 647.754C221.731 643.882 229.442 640.26 237.115 636.799Z" fill="#EB8B01"/>
<path d="M269.139 642.09C270.014 644.101 269.588 660.356 269.368 663.456C267.993 663.75 266.647 664.284 265.24 664.307C265.294 668.426 265.89 672.56 265.782 676.668C264.192 681.535 264.7 688.905 264.052 694.229C259.692 697.146 256.334 700.197 253.162 704.401C250.678 700.869 247.705 697.862 244.555 694.939C239.642 692.483 235.066 690.896 229.66 689.953L227.239 689.747C224.847 681.39 221.614 673.229 218.684 665.047C224.429 661.462 230.99 659.005 237.17 656.292L238.005 655.888C242.681 654.188 247.156 651.87 251.682 649.796C257.483 647.186 263.302 644.617 269.139 642.09Z" fill="#2B8017"/>
<path d="M269.139 642.09C270.014 644.101 269.588 660.356 269.368 663.456C267.993 663.75 266.647 664.284 265.24 664.307C265.027 659.791 265.236 655.384 265.67 650.893C259.129 652.018 252.508 652.837 248.27 658.695C245.78 662.137 244.693 666.419 243.99 670.559C242.833 670.244 238.804 665.761 237.164 664.746C236.819 662.013 237.104 659.043 237.17 656.292L238.005 655.888C242.681 654.188 247.156 651.87 251.682 649.796C257.483 647.186 263.302 644.617 269.139 642.09Z" fill="#FBA301"/>
<path d="M237.17 656.292C237.104 659.043 236.819 662.013 237.164 664.746C238.804 665.761 242.833 670.244 243.99 670.559C243.279 675.955 242.327 681.612 242.996 687.06C243.311 689.618 244.574 692.412 244.555 694.939C239.642 692.483 235.066 690.896 229.66 689.953L227.239 689.747C224.847 681.39 221.614 673.229 218.684 665.047C224.429 661.462 230.99 659.005 237.17 656.292Z" fill="#32AA05"/>
<path d="M237.17 656.292C237.104 659.043 236.819 662.013 237.164 664.746C231.144 663.086 226.839 662.297 221.099 665.524C226.848 671.853 229.518 681.504 229.66 689.953L227.239 689.747C224.847 681.39 221.614 673.229 218.684 665.047C224.429 661.462 230.99 659.005 237.17 656.292Z" fill="#EEC100"/>
<path d="M375.737 655.227C377.544 655.949 379.208 656.777 380.907 657.732C386.444 662.358 389.964 668.783 390.648 676.054C390.775 677.422 390.842 678.792 390.848 680.166L390.869 680.848C388.191 689.814 381.726 700.747 377.431 709.3C372.146 719.823 367.244 730.562 362.07 741.147C359.944 745.497 357.962 749.892 355.988 754.313C355.262 755.937 354.237 757.713 353.767 759.409L328.713 759.406C323.759 759.403 318.748 759.242 313.801 759.53C313.924 759.183 314.041 758.834 314.15 758.483C318.896 743.182 319.03 730.473 311.514 716.025C311.562 715.963 311.611 715.902 311.659 715.841L311.893 715.529C314.744 711.826 316.35 706.39 318.226 702.063C322.355 692.544 327.692 683.066 334.69 675.398C345.558 663.49 359.59 655.843 375.737 655.227Z" fill="#FBA301"/>
<path d="M-34.5734 548.208C-23.8568 559.354 -17.1161 573.759 -17.2972 589.475C-17.3449 593.599 -18.0136 597.486 -19.29 601.397C-19.3612 601.294 -19.4336 601.191 -19.503 601.086C-19.5966 600.943 -19.6853 600.798 -19.7788 600.656C-20.876 598.991 -21.6002 591.023 -22.1 588.448C-23.8996 579.171 -26.0916 570.408 -29.3434 561.539C-30.6301 558.03 -34.9597 551.59 -34.5734 548.208Z" fill="#53C302"/>
<path d="M214.501 584.519C218.234 583.692 222.051 581.502 225.553 579.911L237.5 574.607C238.472 578.871 237.972 591.266 237.758 596.12L237.19 596.812C237.29 600.44 236.43 612.817 237.502 615.304L236.805 615.883C232.395 617.92 218.258 625.217 214.289 625.975C215.008 619.753 214.482 613.006 214.424 606.73C214.353 599.328 214.514 591.922 214.501 584.519Z" fill="#F5B52F"/>
<path d="M237.19 596.812C237.29 600.44 236.43 612.817 237.502 615.304L236.805 615.883C232.395 617.92 218.258 625.217 214.289 625.975C215.008 619.753 214.482 613.006 214.424 606.73C222.306 604.368 229.339 599.326 237.19 596.812Z" fill="#EB8B01"/>
<path d="M-62.7276 616.961C-59.4454 614.216 -55.8255 612.25 -51.6587 611.279C-42.7251 609.198 -31.4189 611.599 -23.6015 616.27C-20.8591 617.909 -18.4553 620.135 -15.7437 621.843L-15.4836 622.004C-12.947 623.667 0.712321 646.032 1.40757 648.935C1.46611 649.181 1.46913 649.339 1.49327 649.601C-8.70192 647.976 -18.5386 646.596 -28.3783 643.239C-43.2876 638.153 -55.4703 631.775 -62.7276 616.961Z" fill="#53C302"/>
<path d="M141.469 538.23C143.405 537.429 146.189 536.045 148.271 536.855C149.737 537.425 150.714 540.252 151.283 541.657C153.236 546.488 154.789 551.485 156.745 556.31C155.711 557.275 154.821 558.099 153.512 558.683C146.938 560.546 140.668 563.224 134.19 565.373C126.147 568.985 110.212 572.083 103.909 576.692C102.86 576.932 102.078 576.975 101.058 576.621C99.1886 574.728 97.3195 567.533 96.4251 564.773C95.8916 563.128 93.5837 556.668 94.3309 555.516C95.4305 553.821 98.9695 553.068 100.839 552.633C109.56 549.46 118.384 546.6 127.099 543.41C131.9 541.825 136.788 540.144 141.469 538.23Z" fill="#0073CC"/>
<path d="M100.839 552.633C98.7372 544.687 95.1342 536.535 92.6006 528.614C91.7545 525.968 90.6688 523.09 90.4135 520.316C90.2976 519.054 90.5529 517.784 91.0864 516.64C92.431 513.755 95.2784 512.721 98.0522 511.72C103.287 509.83 118.394 503.902 122.857 503.525C123.231 503.494 123.606 503.488 123.98 503.509C124.355 503.529 124.727 503.576 125.095 503.647C125.464 503.719 125.826 503.816 126.181 503.938C126.536 504.06 126.882 504.206 127.218 504.376C128.895 505.235 129.939 506.603 130.857 508.225C133.373 512.671 134.657 517.988 136.229 522.84C137.93 527.986 139.677 533.116 141.469 538.23C136.788 540.144 131.9 541.825 127.099 543.41C118.384 546.6 109.56 549.46 100.839 552.633Z" fill="#FBA301"/>
<path d="M-81.1192 529.327C-78.7581 529.283 -76.4092 529.279 -74.0519 529.442C-59.5936 530.44 -44.2373 537.088 -34.5734 548.208C-34.9597 551.59 -30.6301 558.03 -29.3434 561.539C-26.0916 570.408 -23.8996 579.171 -22.1 588.448C-21.6002 591.023 -20.876 598.991 -19.7788 600.656C-19.6853 600.798 -19.5966 600.943 -19.503 601.086C-19.4336 601.191 -19.3612 601.294 -19.29 601.397L-20.1385 603.681C-21.7741 604.596 -23.3836 605.054 -25.0584 605.805C-28.187 605.246 -31.4575 605.429 -34.635 604.826C-45.3569 602.79 -55.7227 595.926 -63.112 587.992C-74.203 576.084 -80.1734 560.459 -81.2041 544.237C-81.5213 539.244 -81.279 534.319 -81.1192 529.327Z" fill="#94DF16"/>
<path d="M251.189 464H255.127C257.539 464.774 260.035 465.203 262.485 465.827C262.257 468.981 265.82 475.143 266.843 478.501C268.929 485.349 270.586 493.101 270.343 500.273L270.273 500.537C270.318 504.583 270.253 508.627 270.076 512.669C269.848 514.971 270.13 517.18 270.04 519.463C266.935 521.42 263.24 522.786 259.905 524.307C252.5 527.704 245.038 530.966 237.519 534.092L237.015 534.515C232.152 536.835 218.76 543.584 214.26 544.368L214.26 525.45C214.207 511.183 213.15 497.299 220.606 484.476C227.904 471.925 237.908 467.53 251.189 464Z" fill="#FBA301"/>
<path d="M214.26 525.45C216.831 524.839 219.642 523.163 222.066 522.039C227.05 519.701 232.057 517.414 237.087 515.177C237.223 519.678 236.452 530.6 237.519 534.092L237.015 534.515C232.152 536.835 218.76 543.584 214.26 544.368L214.26 525.45Z" fill="#EB8B01"/>
<path d="M270.273 500.537C270.318 504.583 270.253 508.627 270.076 512.669C269.848 514.971 270.13 517.18 270.04 519.463C266.935 521.42 263.24 522.786 259.905 524.307C252.5 527.704 245.038 530.966 237.519 534.092C236.452 530.6 237.223 519.678 237.087 515.177C240.242 514.096 243.429 512.357 246.478 510.975C254.356 507.402 262.204 503.651 270.273 500.537Z" fill="#EC7E00"/>
<path d="M-20.1385 603.681C-16.2555 608.386 -12.7443 613.31 -9.2831 618.335C-7.55101 620.85 -5.91368 623.564 -4.03855 625.958C-2.30586 630.907 4.20367 638.392 6.9038 644.045C8.16213 646.679 8.84228 652.373 11.0041 654.159C11.4803 653.714 11.5472 653.462 11.773 652.864C11.878 652.875 11.9824 652.887 12.0874 652.897C13.0814 652.987 13.528 652.976 14.3916 652.47L14.5853 652.068L14.7248 652.536C15.3916 654.839 15.4695 657.401 16.0072 659.76C18.0393 668.674 22.253 680.594 28.4746 687.336C27.3962 689.153 26.3744 691.094 24.9942 692.693C21.7322 691.796 18.2197 691.499 14.869 691.073C11.9938 691.858 9.0143 692.06 6.12466 692.771C-4.83398 696.739 -10.8191 702.176 -17.7595 711.412C-26.1767 706.09 -35.501 701.515 -45.1193 698.984C-64.1442 693.975 -80.0945 697.628 -96.7951 707.492C-97.9808 708.558 -100.471 711.332 -102 711.546V711.279C-101.216 710.492 -99.6928 702.212 -99.2478 700.675C-98.3732 697.651 -97.3246 694.69 -96.1019 691.792C-89.2022 675.746 -74.5988 662.662 -58.5645 656.435C-40.3762 649.371 -21.4325 649.492 -3.59738 657.581C-0.84957 656.829 1.891 656.103 4.672 655.484C3.64119 653.531 2.75099 651.413 1.49327 649.601C1.46913 649.339 1.46611 649.181 1.40757 648.935C0.712321 646.032 -12.947 623.667 -15.4836 622.004C-18.6062 616.565 -21.9086 611.23 -25.0584 605.805C-23.3836 605.054 -21.7741 604.596 -20.1385 603.681Z" fill="#94DF16"/>
<path d="M-20.1385 603.681C-16.2555 608.386 -12.7443 613.31 -9.2831 618.335C-7.55101 620.85 -5.91368 623.564 -4.03855 625.958C-2.30586 630.907 4.20367 638.392 6.9038 644.045C8.16213 646.679 8.84228 652.373 11.0041 654.159C11.4803 653.714 11.5472 653.462 11.773 652.864C11.878 652.875 11.9824 652.887 12.0874 652.897C13.0814 652.987 13.528 652.976 14.3916 652.47L14.5853 652.068L14.7248 652.536C15.3916 654.839 15.4695 657.401 16.0072 659.76C18.0393 668.674 22.253 680.594 28.4746 687.336C27.3962 689.153 26.3744 691.094 24.9942 692.693C21.7322 691.796 18.2197 691.499 14.869 691.073C-0.373396 682.138 0.193306 671.245 -20.1277 667.76C-14.9797 662.986 -9.81359 660.549 -3.59738 657.581C-0.84957 656.829 1.891 656.103 4.672 655.484C3.64119 653.531 2.75099 651.413 1.49327 649.601C1.46913 649.339 1.46611 649.181 1.40757 648.935C0.712321 646.032 -12.947 623.667 -15.4836 622.004C-18.6062 616.565 -21.9086 611.23 -25.0584 605.805C-23.3836 605.054 -21.7741 604.596 -20.1385 603.681Z" fill="#32AA05"/>
<path d="M-96.7951 707.492C-96.5506 704.5 -93.6507 701.448 -91.7787 699.289C-79.9048 685.595 -63.0379 675.522 -44.8296 674.355C-26.5304 673.181 -7.59747 680.614 6.12466 692.771C-4.83398 696.739 -10.8191 702.176 -17.7595 711.412C-26.1767 706.09 -35.501 701.515 -45.1193 698.984C-64.1442 693.975 -80.0945 697.628 -96.7951 707.492Z" fill="#53C302"/>
<path d="M289.495 491.82C290.917 495.964 291.659 499.775 291.889 504.156C291.986 505.992 291.89 507.994 292.158 509.805L291.967 511.362C292.251 516.489 292.081 521.705 292.076 526.842L292.052 554.265L292.064 579.297C292.081 582.99 292.376 586.838 292.195 590.512C292.172 597.763 292.24 605.033 292.063 612.28C287.708 612.958 273.898 619.338 269.743 621.832C269.799 618.607 270.383 602.922 269.369 601.107C258.598 605.395 248.217 610.813 237.502 615.304C236.43 612.817 237.29 600.44 237.19 596.812L237.758 596.12C237.972 591.266 238.472 578.871 237.5 574.607L225.553 579.911C222.051 581.502 218.234 583.692 214.501 584.519C214.407 578.346 214.346 572.172 214.316 565.998L214.26 544.368C218.76 543.584 232.152 536.835 237.015 534.515L237.519 534.092C245.038 530.966 252.5 527.704 259.905 524.307C263.24 522.786 266.935 521.42 270.04 519.463C270.13 517.18 269.848 514.971 270.076 512.669C270.253 508.627 270.318 504.583 270.273 500.537L270.343 500.273C276.904 497.863 283.001 494.402 289.495 491.82Z" fill="#E6621C"/>
<path d="M292.195 590.512C292.172 597.763 292.24 605.033 292.063 612.28C287.708 612.958 273.898 619.338 269.743 621.832C269.799 618.607 270.383 602.922 269.369 601.107L269.801 600.893C277.42 597.788 285.061 594.66 292.195 590.512Z" fill="#EB8B01"/>
<path d="M269.761 559.846C277.276 556.863 284.427 552.945 291.922 549.962C291.843 557.286 291.839 564.61 291.911 571.935C284.21 574.097 277.41 579.132 269.756 581.448C269.737 574.897 270.823 566.505 269.34 560.18L269.761 559.846Z" fill="#EB8B01"/>
<path d="M289.495 491.82C290.917 495.964 291.659 499.775 291.889 504.156C291.986 505.992 291.89 507.994 292.158 509.805L291.967 511.362C291.198 515.512 291.853 525.736 291.903 530.563C284.31 533.258 277.257 537.533 269.766 540.592C269.939 533.547 269.845 526.499 270.04 519.463C270.13 517.18 269.848 514.971 270.076 512.669C270.253 508.627 270.318 504.583 270.273 500.537L270.343 500.273C276.904 497.863 283.001 494.402 289.495 491.82Z" fill="#EB8B01"/>
<path d="M289.495 491.82C290.917 495.964 291.659 499.775 291.889 504.156C291.986 505.992 291.89 507.994 292.158 509.805C288.804 510.109 280.659 515.009 277.078 516.662C274.825 517.702 272.468 518.525 270.225 519.573C270.261 517.271 270.353 514.96 270.076 512.669C270.253 508.627 270.318 504.583 270.273 500.537L270.343 500.273C276.904 497.863 283.001 494.402 289.495 491.82Z" fill="#E6621C"/>
<path d="M269.34 560.18C270.823 566.505 269.737 574.897 269.756 581.448C269.761 587.922 269.66 594.422 269.801 600.893L269.369 601.107C258.598 605.395 248.217 610.813 237.502 615.304C236.43 612.817 237.29 600.44 237.19 596.812L237.758 596.12C237.972 591.266 238.472 578.871 237.5 574.607L237.756 574.408C248.443 570.026 258.971 565.283 269.34 560.18Z" fill="#FBA301"/>
<path d="M237.758 596.12C241.495 594.798 245.216 592.871 248.804 591.178C255.768 587.89 262.67 584.465 269.756 581.448C269.761 587.922 269.66 594.422 269.801 600.893L269.369 601.107C258.598 605.395 248.217 610.813 237.502 615.304C236.43 612.817 237.29 600.44 237.19 596.812L237.758 596.12Z" fill="#EC7E00"/>
<path d="M270.04 519.463C269.845 526.499 269.939 533.547 269.766 540.592L269.761 559.846L269.34 560.18C258.971 565.283 248.443 570.026 237.756 574.408L237.5 574.607L225.553 579.911C222.051 581.502 218.234 583.692 214.501 584.519C214.407 578.346 214.346 572.172 214.316 565.998L214.26 544.368C218.76 543.584 232.152 536.835 237.015 534.515L237.519 534.092C245.038 530.966 252.5 527.704 259.905 524.307C263.24 522.786 266.935 521.42 270.04 519.463Z" fill="#FBA301"/>
<path d="M269.766 540.592L269.761 559.846L269.34 560.18C258.971 565.283 248.443 570.026 237.756 574.408C236.781 572.94 237.1 558.155 237.298 555.624L237.834 555.262C240.192 554.012 242.77 553.084 245.2 551.973C250.133 549.718 254.986 547.288 259.92 545.041C263.198 543.549 266.569 542.26 269.766 540.592Z" fill="#EC7E00"/>
<path d="M237.015 534.515C239 539.304 237.475 549.638 237.834 555.262L237.298 555.624C237.1 558.155 236.781 572.94 237.756 574.408L237.5 574.607L225.553 579.911C222.051 581.502 218.234 583.692 214.501 584.519C214.407 578.346 214.346 572.172 214.316 565.998L214.26 544.368C218.76 543.584 232.152 536.835 237.015 534.515Z" fill="#F5B52F"/>
<path d="M237.298 555.624C237.1 558.155 236.781 572.94 237.756 574.408L237.5 574.607L225.553 579.911C222.051 581.502 218.234 583.692 214.501 584.519C214.407 578.346 214.346 572.172 214.316 565.998C216.769 564.21 233.891 556.765 237.298 555.624Z" fill="#EB8B01"/>
<path d="M-5.96195 582.488C-7.73025 561.823 -11.3013 497.857 0.436524 483.384C2.49572 480.845 5.29422 479.248 8.5514 478.986C18.4165 478.194 28.9261 487.339 35.8514 493.604C59.5847 515.076 77.6503 542.495 94.6707 569.482C97.3455 573.723 99.6726 578.202 102.375 582.412L102.962 580.475C103.364 579.217 103.672 577.992 103.909 576.692C110.212 572.083 126.147 568.985 134.19 565.373C140.668 563.224 146.938 560.546 153.512 558.683C156.828 562.039 161.631 564.354 165.693 566.698C173.295 571.085 181.347 575.234 188.411 580.468C194.538 596.474 200.112 612.824 205.846 628.984C207.981 634.999 210.872 645.97 214.175 650.833C215.061 655.693 216.94 660.445 218.684 665.047C221.614 673.229 224.847 681.39 227.239 689.747L229.66 689.953C235.066 690.896 239.642 692.483 244.555 694.939C247.705 697.862 250.678 700.869 253.162 704.401C253.178 704.511 253.187 704.623 253.211 704.732C253.894 707.826 256.107 710.844 256.975 714.018C257.179 714.746 257.368 715.477 257.545 716.212C257.722 716.946 257.885 717.684 258.035 718.425C258.185 719.166 258.321 719.909 258.444 720.655C258.567 721.401 258.676 722.148 258.772 722.898C258.868 723.648 258.95 724.399 259.019 725.152C259.088 725.905 259.143 726.659 259.184 727.414C259.225 728.168 259.253 728.924 259.267 729.68C259.281 730.436 259.281 731.192 259.267 731.948C259.254 732.704 259.227 733.459 259.186 734.214C259.145 734.969 259.091 735.723 259.023 736.476C258.955 737.229 258.873 737.98 258.777 738.73C258.682 739.48 258.573 740.228 258.451 740.974C258.328 741.72 258.192 742.463 258.043 743.204C257.894 743.945 257.731 744.682 257.555 745.417C257.378 746.152 257.189 746.883 256.986 747.611C256.784 748.339 256.568 749.063 256.339 749.782C255.273 753.087 253.743 756.165 252.552 759.41L206.648 759.408L188.333 759.388C175.805 759.57 163.245 759.408 150.713 759.406C140.198 759.447 129.683 759.417 119.169 759.315C106.399 759.582 93.5723 759.369 80.7976 759.374C69.534 759.149 58.2706 759.156 47.0074 759.395L0.839673 759.384C-2.86652 759.421 -11.3701 760.177 -14.3617 758.796C-14.6761 757.076 -16.4987 755.615 -17.436 754.171C-21.905 747.286 -23.508 739.755 -23.523 731.629C-23.6522 724.267 -21.354 717.743 -17.7595 711.412C-10.8191 702.176 -4.83398 696.739 6.12466 692.771C9.0143 692.06 11.9938 691.858 14.869 691.073C18.2197 691.499 21.7322 691.796 24.9942 692.693C26.3744 691.094 27.3962 689.153 28.4746 687.336C22.253 680.594 18.0393 668.674 16.0072 659.76C15.4695 657.401 15.3916 654.839 14.7248 652.536L14.5853 652.068L14.3916 652.47C13.528 652.976 13.0814 652.987 12.0874 652.897C11.9824 652.887 11.878 652.875 11.773 652.864C11.5472 653.462 11.4803 653.714 11.0041 654.159C8.84228 652.373 8.16213 646.679 6.9038 644.045C4.20367 638.392 -2.30586 630.907 -4.03855 625.958C-4.48998 622.156 -5.58596 618.341 -6.25948 614.56C-8.16659 603.847 -8.21427 593.158 -5.96195 582.488Z" fill="#FBA301"/>
<path d="M15.0301 643.559C16.7423 637.808 19.3724 632.763 24.8059 629.808C27.4897 628.348 30.4989 627.453 33.5062 627.005C32.0789 637.483 34.3644 644.351 38.3403 653.947C38.9402 660.279 43.1745 665.951 45.0556 671.931C38.4055 676.279 33.4573 681.167 28.4746 687.336C22.253 680.594 18.0393 668.674 16.0072 659.76C15.4695 657.401 15.3916 654.839 14.7248 652.536L14.5853 652.068C14.3041 649.225 15.1466 646.406 15.0301 643.559Z" fill="url(#paint2_linear_15_130)"/>
<path d="M-5.96195 582.488C-3.75731 578.67 -1.65344 572.951 2.955 571.619C5.46683 570.893 8.01668 571.845 10.1628 573.163C14.9179 576.084 17.4877 581.337 18.6778 586.659C20.2934 593.885 20.1636 601.747 19.6247 609.115C19.156 615.352 18.2986 621.533 17.0525 627.658C16.2426 631.834 15.175 636.082 14.6988 640.308C14.5775 641.386 14.3783 642.461 14.9571 643.433L15.0301 643.559C15.1466 646.406 14.3041 649.225 14.5853 652.068L14.3916 652.47C13.528 652.976 13.0814 652.987 12.0874 652.897C11.9824 652.887 11.878 652.875 11.773 652.864C11.5472 653.462 11.4803 653.714 11.0041 654.159C8.84228 652.373 8.16213 646.679 6.9038 644.045C4.20367 638.392 -2.30586 630.907 -4.03855 625.958C-4.48998 622.156 -5.58596 618.341 -6.25948 614.56C-8.16659 603.847 -8.21427 593.158 -5.96195 582.488Z" fill="#53C302"/>
<path d="M39.799 648.658C39.4665 648.216 39.1291 647.781 38.9263 647.259C37.6221 643.911 38.0633 638.568 38.0223 634.988C37.8811 622.574 37.5799 600.229 42.8782 588.984C44.1709 586.241 46.2422 583.794 49.1825 582.852C60.7193 579.154 77.5127 599.146 83.8128 607.648C85.6028 610.063 89.723 617.405 91.9711 618.494C92.1377 618.575 92.3097 618.644 92.4787 618.719C93.4648 621.281 94.3496 623.968 95.5494 626.433C99.1222 635.502 102.011 645.049 105.92 653.941C111.492 673.19 120.146 691.476 126.346 710.505C124.115 710.838 121.888 711.204 119.667 711.602C118.934 708.988 118.493 706.327 117.671 703.714C117.336 702.664 116.97 701.624 116.574 700.595C116.178 699.567 115.753 698.551 115.298 697.547C114.843 696.544 114.359 695.555 113.846 694.58C113.334 693.605 112.794 692.647 112.226 691.704C111.658 690.761 111.063 689.837 110.441 688.929C109.819 688.022 109.171 687.134 108.497 686.265C107.824 685.396 107.126 684.548 106.403 683.721C105.68 682.894 104.934 682.089 104.165 681.306C94.9881 672.118 81.9093 666.238 68.9319 666.292C65.3567 665.925 62.0651 666.145 58.543 666.897C53.7342 667.986 49.445 669.692 45.0556 671.931C43.1745 665.951 38.9402 660.279 38.3403 653.947C38.9239 652.22 39.3349 650.421 39.799 648.658Z" fill="#EB8B01"/>
<path d="M39.799 648.658C42.5649 642.213 47.1347 636.305 53.7324 633.614C59.6414 631.204 65.6059 631.811 71.3538 634.344C71.6065 634.455 71.8586 634.568 72.11 634.683C66.8546 636.444 62.2854 638.996 59.7114 644.228C56.2847 651.194 56.3601 659.579 58.543 666.897C53.7342 667.986 49.445 669.692 45.0556 671.931C43.1745 665.951 38.9402 660.279 38.3403 653.947C38.9239 652.22 39.3349 650.421 39.799 648.658Z" fill="#32AA05"/>
<path d="M58.543 666.897C62.0651 666.145 65.3567 665.925 68.9319 666.292C81.9093 666.238 94.9881 672.118 104.165 681.306C104.934 682.089 105.68 682.894 106.403 683.721C107.126 684.548 107.824 685.396 108.497 686.265C109.171 687.134 109.819 688.022 110.441 688.929C111.063 689.837 111.658 690.761 112.226 691.704C112.794 692.647 113.334 693.605 113.846 694.58C114.359 695.555 114.843 696.544 115.298 697.547C115.753 698.551 116.178 699.567 116.574 700.595C116.97 701.624 117.336 702.664 117.671 703.714C118.493 706.327 118.934 708.988 119.667 711.602C105.291 716.012 94.0225 724.669 86.907 738.207C83.5213 744.65 81.2243 752.069 80.7976 759.374C69.534 759.149 58.2706 759.156 47.0074 759.395L0.839673 759.384C-2.86652 759.421 -11.3701 760.177 -14.3617 758.796C-14.6761 757.076 -16.4987 755.615 -17.436 754.171C-21.905 747.286 -23.508 739.755 -23.523 731.629C-23.6522 724.267 -21.354 717.743 -17.7595 711.412C-10.8191 702.176 -4.83398 696.739 6.12466 692.771C9.0143 692.06 11.9938 691.858 14.869 691.073C18.2197 691.499 21.7322 691.796 24.9942 692.693C26.3744 691.094 27.3962 689.153 28.4746 687.336C33.4573 681.167 38.4055 676.279 45.0556 671.931C49.445 669.692 53.7342 667.986 58.543 666.897Z" fill="#BD231A"/>
<path d="M58.543 666.897C62.0651 666.145 65.3567 665.925 68.9319 666.292C67.5354 666.385 66.1793 666.433 64.7791 666.391C64.8365 666.491 64.8926 666.592 64.9517 666.69C66.8009 669.782 69.5946 672.19 71.5421 675.227C78.3818 685.897 80.1754 700.293 77.3148 712.57C74.8192 723.28 69.3652 731.888 61.7978 739.644C59.8931 741.596 58.0216 743.614 55.6709 745.026C55.15 745.339 54.6745 745.567 54.1066 745.771C56.8652 733.841 56.5985 722.528 50.2585 711.783C44.4853 701.996 35.817 695.519 24.9942 692.693C26.3744 691.094 27.3962 689.153 28.4746 687.336C33.4573 681.167 38.4055 676.279 45.0556 671.931C49.445 669.692 53.7342 667.986 58.543 666.897Z" fill="#C83414"/>
<path d="M14.869 691.073C18.2197 691.499 21.7322 691.796 24.9942 692.693C35.817 695.519 44.4853 701.996 50.2585 711.783C56.5985 722.528 56.8652 733.841 54.1066 745.771C52.1125 750.609 49.7112 754.926 47.0074 759.395L0.839673 759.384C-2.86652 759.421 -11.3701 760.177 -14.3617 758.796C-14.6761 757.076 -16.4987 755.615 -17.436 754.171C-21.905 747.286 -23.508 739.755 -23.523 731.629C-23.6522 724.267 -21.354 717.743 -17.7595 711.412C-10.8191 702.176 -4.83398 696.739 6.12466 692.771C9.0143 692.06 11.9938 691.858 14.869 691.073Z" fill="#E6621C"/>
<path d="M-23.523 731.629C-21.0016 736.274 -19.8042 741.314 -16.5011 745.546C-15.2354 747.139 -13.8646 748.634 -12.3888 750.03C-10.913 751.426 -9.34706 752.71 -7.69101 753.882C-5.27937 755.559 -0.8037 757.055 0.839673 759.384C-2.86652 759.421 -11.3701 760.177 -14.3617 758.796C-14.6761 757.076 -16.4987 755.615 -17.436 754.171C-21.905 747.286 -23.508 739.755 -23.523 731.629Z" fill="#BD231A"/>
<path d="M134.19 565.373C140.668 563.224 146.938 560.546 153.512 558.683C156.828 562.039 161.631 564.354 165.693 566.698C173.295 571.085 181.347 575.234 188.411 580.468C194.538 596.474 200.112 612.824 205.846 628.984C207.981 634.999 210.872 645.97 214.175 650.833C215.061 655.693 216.94 660.445 218.684 665.047C221.614 673.229 224.847 681.39 227.239 689.747L229.66 689.953C235.066 690.896 239.642 692.483 244.555 694.939C247.705 697.862 250.678 700.869 253.162 704.401C253.178 704.511 253.187 704.623 253.211 704.732C253.894 707.826 256.107 710.844 256.975 714.018C257.179 714.746 257.368 715.477 257.545 716.212C257.722 716.946 257.885 717.684 258.035 718.425C258.185 719.166 258.321 719.909 258.444 720.655C258.567 721.401 258.676 722.148 258.772 722.898C258.868 723.648 258.95 724.399 259.019 725.152C259.088 725.905 259.143 726.659 259.184 727.414C259.225 728.168 259.253 728.924 259.267 729.68C259.281 730.436 259.281 731.192 259.267 731.948C259.254 732.704 259.227 733.459 259.186 734.214C259.145 734.969 259.091 735.723 259.023 736.476C258.955 737.229 258.873 737.98 258.777 738.73C258.682 739.48 258.573 740.228 258.451 740.974C258.328 741.72 258.192 742.463 258.043 743.204C257.894 743.945 257.731 744.682 257.555 745.417C257.378 746.152 257.189 746.883 256.986 747.611C256.784 748.339 256.568 749.063 256.339 749.782C255.273 753.087 253.743 756.165 252.552 759.41L206.648 759.408L188.333 759.388C175.805 759.57 163.245 759.408 150.713 759.406C140.198 759.447 129.683 759.417 119.169 759.315C106.399 759.582 93.5723 759.369 80.7976 759.374C81.2243 752.069 83.5213 744.65 86.907 738.207C94.0225 724.669 105.291 716.012 119.667 711.602C121.888 711.204 124.115 710.838 126.346 710.505C120.146 691.476 111.492 673.19 105.92 653.941C102.011 645.049 99.1222 635.502 95.5494 626.433C94.3496 623.968 93.4648 621.281 92.4787 618.719C91.9265 616.998 91.2349 615.326 90.5746 613.645C91.8879 610.338 93.1039 607 94.4727 603.714C96.8246 598.067 101.781 588.194 102.375 582.412L102.962 580.475C103.364 579.217 103.672 577.992 103.909 576.692C110.212 572.083 126.147 568.985 134.19 565.373Z" fill="#38CE81"/>
<path d="M105.92 653.941C107.155 651.064 108.48 647.1 111.536 645.747C112.681 645.24 113.88 645.305 115.021 645.78C118.458 647.21 119.829 651.005 121.076 654.265C127.993 672.351 133.425 690.95 140.636 708.956C135.8 709.13 131.121 709.737 126.346 710.505C120.146 691.476 111.492 673.19 105.92 653.941Z" fill="#6DE19F"/>
<path d="M181.487 603.222C182.308 603.308 183.155 603.452 183.931 603.747C185.666 604.406 187.169 605.986 187.946 607.663C189.532 611.083 190.57 614.896 191.799 618.467L198.31 637.037C202.652 649.416 207.725 661.631 211.474 674.202C212.042 676.107 213.491 679.569 212.73 681.458C211.889 683.542 209.777 684.334 207.896 685.185L204.208 684.843C202.917 683.977 201.806 682.905 201.115 681.474C197.408 673.799 195.17 664.954 192.274 656.915L181.82 627.86C180.131 623.113 178.262 618.373 176.783 613.558C175.632 609.814 175.726 608.179 177.541 604.735C178.859 604.067 180.025 603.522 181.487 603.222Z" fill="#6DE19F"/>
<path d="M134.346 569.602C135.354 572.82 136.657 575.943 137.75 579.132L147.344 607.273C134.116 611.849 121.186 617.063 108.135 622.114C104.032 623.702 99.5495 624.703 95.5494 626.433C94.3496 623.968 93.4648 621.281 92.4787 618.719C91.9265 616.998 91.2349 615.326 90.5746 613.645C91.8879 610.338 93.1039 607 94.4727 603.714C96.8246 598.067 101.781 588.194 102.375 582.412L102.962 580.475C110.941 579.59 125.646 572.121 134.346 569.602Z" fill="#6DE19F"/>
<path d="M140.636 708.956C148.371 709.783 154.947 711.969 161.878 715.507C170.377 720.357 176.931 727.396 181.73 735.967C183.074 738.366 184.028 741.603 185.818 743.651C186.38 748.936 187.829 754.096 188.333 759.388C175.805 759.57 163.245 759.408 150.713 759.406C140.198 759.447 129.683 759.417 119.169 759.315C106.399 759.582 93.5723 759.369 80.7976 759.374C81.2243 752.069 83.5213 744.65 86.907 738.207C94.0225 724.669 105.291 716.012 119.667 711.602C121.888 711.204 124.115 710.838 126.346 710.505C131.121 709.737 135.8 709.13 140.636 708.956Z" fill="#F7D478"/>
<path d="M126.558 711.909C133.644 711.368 140.738 710.769 146.738 715.414C142.534 718.91 136.573 724.459 131.252 725.942C129.706 721.31 128.51 716.374 126.558 711.909Z" fill="#F5B52F"/>
<path d="M108.882 739.018C112.041 738.792 115.964 739.012 118.558 741.123C119.458 741.855 120.028 742.845 120.116 744.018C120.236 745.616 119.417 747.157 118.352 748.282C115.535 751.256 110.83 752.548 106.832 752.526C104.585 752.514 102.147 751.87 100.574 750.145C100.458 750.02 100.35 749.888 100.248 749.751C100.147 749.614 100.053 749.472 99.9665 749.324C99.88 749.177 99.8018 749.025 99.7317 748.869C99.6613 748.714 99.5994 748.554 99.5459 748.392C99.4924 748.229 99.4477 748.064 99.4119 747.896C99.3761 747.729 99.3491 747.56 99.331 747.39C99.3129 747.22 99.3039 747.049 99.3039 746.878C99.3043 746.707 99.3135 746.536 99.3316 746.365C99.5133 744.566 100.437 743.269 101.813 742.193C103.937 740.471 106.04 738.985 108.882 739.018Z" fill="#FDDFAB"/>
<path d="M101.813 742.193C103.937 740.471 106.04 738.985 108.882 739.018C110.573 739.438 112.927 740.369 113.729 742.068C114.225 743.119 114.03 744.339 113.511 745.335C112.533 747.212 110.599 748.371 108.627 748.907C107.179 749.299 105.026 749.573 103.662 748.747C102.528 748.063 101.891 746.99 101.613 745.696C101.376 744.592 101.656 743.299 101.813 742.193Z" fill="#FEFEFE"/>
<path d="M103.364 732.682C104.599 730.415 105.545 728.025 106.88 725.802C111.422 718.238 118.625 714.779 126.558 711.909C128.51 716.374 129.706 721.31 131.252 725.942C122.059 730.143 113.324 731.697 103.364 732.682Z" fill="#EEC100"/>
<path d="M161.878 715.507C170.377 720.357 176.931 727.396 181.73 735.967C183.074 738.366 184.028 741.603 185.818 743.651C186.38 748.936 187.829 754.096 188.333 759.388C175.805 759.57 163.245 759.408 150.713 759.406C140.198 759.447 129.683 759.417 119.169 759.315C119.993 757.568 128.607 754.439 130.707 752.849C132.965 751.141 135.051 749.239 136.964 747.144C141.104 742.671 144.638 737.615 148.573 732.954C152.56 728.229 157.182 723.796 160.649 718.653C161.363 717.593 161.712 716.781 161.878 715.507Z" fill="#F5B52F"/>
<path d="M227.239 689.747L229.66 689.953C235.066 690.896 239.642 692.483 244.555 694.939C247.705 697.862 250.678 700.869 253.162 704.401C253.178 704.511 253.187 704.623 253.211 704.732C253.894 707.826 256.107 710.844 256.975 714.018C257.179 714.746 257.368 715.477 257.545 716.212C257.722 716.946 257.885 717.684 258.035 718.425C258.185 719.166 258.321 719.909 258.444 720.655C258.567 721.401 258.676 722.148 258.772 722.898C258.868 723.648 258.95 724.399 259.019 725.152C259.088 725.905 259.143 726.659 259.184 727.414C259.225 728.168 259.253 728.924 259.267 729.68C259.281 730.436 259.281 731.192 259.267 731.948C259.254 732.704 259.227 733.459 259.186 734.214C259.145 734.969 259.091 735.723 259.023 736.476C258.955 737.229 258.873 737.98 258.777 738.73C258.682 739.48 258.573 740.228 258.451 740.974C258.328 741.72 258.192 742.463 258.043 743.204C257.894 743.945 257.731 744.682 257.555 745.417C257.378 746.152 257.189 746.883 256.986 747.611C256.784 748.339 256.568 749.063 256.339 749.782C255.273 753.087 253.743 756.165 252.552 759.41L206.648 759.408L188.333 759.388C187.829 754.096 186.38 748.936 185.818 743.651C185.85 741.294 185.493 738.903 185.425 736.538C185.269 731.047 186.274 725.811 187.856 720.583C189.228 713.639 193.1 707.15 197.938 702.113C205.967 693.755 215.807 689.891 227.239 689.747Z" fill="#E6621C"/>
<path d="M187.856 720.583C189.123 723.059 189.266 726.332 189.997 729.035C190.949 732.555 192.558 736.097 194.149 739.361C195.881 743 197.886 746.478 200.164 749.795C202.366 752.946 205.069 755.863 206.648 759.408L188.333 759.388C187.829 754.096 186.38 748.936 185.818 743.651C185.85 741.294 185.493 738.903 185.425 736.538C185.269 731.047 186.274 725.811 187.856 720.583Z" fill="#BD231A"/>
<defs>
<linearGradient id="paint0_linear_15_130" x1="73.9601" y1="730.251" x2="333.245" y2="944.499" gradientUnits="userSpaceOnUse">
<stop stop-color="#439801"/>
<stop offset="1" stop-color="#28B608"/>
</linearGradient>
<linearGradient id="paint1_linear_15_130" x1="292.787" y1="659.349" x2="-3.62436" y2="485.46" gradientUnits="userSpaceOnUse">
<stop stop-color="#429803"/>
<stop offset="1" stop-color="#56C402"/>
</linearGradient>
<linearGradient id="paint2_linear_15_130" x1="-117.549" y1="744.029" x2="489.918" y2="942.703" gradientUnits="userSpaceOnUse">
<stop stop-color="#13910F"/>
<stop offset="1" stop-color="#007615"/>
</linearGradient>
</defs>
</svg>
