<svg width="740" height="329" viewBox="0 0 740 329" fill="none" xmlns="http://www.w3.org/2000/svg">
<path d="M581.442 283.271L556.332 145.911L602.464 126.162L627.575 263.522L581.442 283.271ZM576.782 121.728C570.542 124.4 564.79 124.484 559.526 121.98C554.263 119.476 551.064 115.124 549.931 108.924C548.797 102.724 550.056 96.4638 553.706 90.1439C557.357 83.8241 562.303 79.3285 568.543 76.6571C574.839 73.9618 580.59 73.878 585.799 76.4054C591.062 78.909 594.261 83.261 595.394 89.4612C596.528 95.6615 595.269 101.922 591.618 108.241C588.023 114.537 583.078 119.033 576.782 121.728ZM702.522 83.3276L709.061 119.098L624.485 155.305L617.946 119.534L702.522 83.3276ZM628.31 79.6128L674.442 59.8637L697.493 185.956C697.842 187.864 698.443 189.342 699.295 190.391C700.137 191.381 701.258 191.929 702.66 192.037C704.05 192.084 705.748 191.679 707.754 190.82C709.147 190.224 710.73 189.353 712.503 188.208C714.332 187.04 715.671 186.145 716.518 185.525L729.547 217.361C727.606 218.899 724.8 220.968 721.13 223.568C717.516 226.143 713.117 228.701 707.934 231.242C697.457 236.37 688.358 239.011 680.637 239.167C672.905 239.263 666.645 236.896 661.857 232.068C657.07 227.239 653.854 220.001 652.211 210.355L628.31 79.6128Z" fill="#EC7E00"/>
<path d="M20.4545 268.478V82.296H48.5455V244.296H132.909V268.478H20.4545ZM193.045 82.296V268.478H164.955V82.296H193.045ZM335.5 131.205C334.53 122.599 330.53 115.932 323.5 111.205C316.47 106.417 307.621 104.023 296.955 104.023C289.318 104.023 282.712 105.235 277.136 107.66C271.561 110.023 267.227 113.296 264.136 117.478C261.106 121.599 259.591 126.296 259.591 131.569C259.591 135.993 260.621 139.811 262.682 143.023C264.803 146.235 267.561 148.932 270.955 151.114C274.409 153.235 278.106 155.023 282.045 156.478C285.985 157.872 289.773 159.023 293.409 159.932L311.591 164.66C317.53 166.114 323.621 168.084 329.864 170.569C336.106 173.054 341.894 176.326 347.227 180.387C352.561 184.447 356.864 189.478 360.136 195.478C363.47 201.478 365.136 208.66 365.136 217.023C365.136 227.569 362.409 236.932 356.955 245.114C351.561 253.296 343.712 259.751 333.409 264.478C323.167 269.205 310.773 271.569 296.227 271.569C282.288 271.569 270.227 269.357 260.045 264.932C249.864 260.508 241.894 254.235 236.136 246.114C230.379 237.932 227.197 228.235 226.591 217.023H254.773C255.318 223.751 257.5 229.357 261.318 233.841C265.197 238.266 270.136 241.569 276.136 243.751C282.197 245.872 288.833 246.932 296.045 246.932C303.985 246.932 311.045 245.69 317.227 243.205C323.47 240.66 328.379 237.144 331.955 232.66C335.53 228.114 337.318 222.811 337.318 216.751C337.318 211.235 335.742 206.72 332.591 203.205C329.5 199.69 325.288 196.781 319.955 194.478C314.682 192.175 308.712 190.144 302.045 188.387L280.045 182.387C265.136 178.326 253.318 172.357 244.591 164.478C235.924 156.599 231.591 146.175 231.591 133.205C231.591 122.478 234.5 113.114 240.318 105.114C246.136 97.1141 254.015 90.902 263.955 86.4778C273.894 81.9929 285.106 79.7505 297.591 79.7505C310.197 79.7505 321.318 81.9626 330.955 86.3869C340.652 90.8111 348.288 96.902 353.864 104.66C359.439 112.357 362.348 121.205 362.591 131.205H335.5ZM389.523 106.478V82.296H533.614V106.478H475.523V268.478H447.523V106.478H389.523Z" fill="#525252"/>
</svg>
