<svg width="54" height="54" viewBox="0 0 54 54" fill="none" xmlns="http://www.w3.org/2000/svg">
<rect x="8.5" y="8.5" width="37" height="37" rx="12.5" stroke="#525252" stroke-width="3"/>
<path d="M37.5405 19.9636L50.3108 6.87273C50.7775 6.39428 51.5468 6.39427 52.0135 6.87273V6.87273L52.8649 7.74545L52.9782 7.86166C53.5466 8.4443 53.5466 9.37389 52.9782 9.95652L40.3784 22.8727L26.7568 36.8364V36.8364C26.1344 37.4743 25.1088 37.4743 24.4865 36.8364V36.8364L16.5405 28.6909L13.0218 25.0838C12.4534 24.5012 12.4534 23.5716 13.0218 22.9889L13.1351 22.8727L13.7027 22.2909L13.7641 22.228C14.3528 21.6245 15.3229 21.6245 15.9116 22.228L19.3784 25.7818L25.6216 32.1818L37.5405 19.9636Z" fill="#46A003"/>
</svg>
