<svg width="38" height="30" viewBox="0 0 38 30" fill="none" xmlns="http://www.w3.org/2000/svg">
<path d="M37 15L13 15M37 3L13 3M37 27L13 27M5 15C5 16.1046 4.10457 17 3 17C1.89543 17 1 16.1046 1 15C1 13.8954 1.89543 13 3 13C4.10457 13 5 13.8954 5 15ZM5 3C5 4.10457 4.10457 5 3 5C1.89543 5 1 4.10457 1 3C1 1.89543 1.89543 1 3 1C4.10457 1 5 1.89543 5 3ZM5 27C5 28.1046 4.10457 29 3 29C1.89543 29 1 28.1046 1 27C1 25.8954 1.89543 25 3 25C4.10457 25 5 25.8954 5 27Z" stroke="#525252" stroke-width="2" stroke-linecap="round" stroke-linejoin="round"/>
</svg>
