<svg width="34" height="38" viewBox="0 0 34 38" fill="none" xmlns="http://www.w3.org/2000/svg">
<path d="M33 37C33 34.2089 33 32.8133 32.6555 31.6777C31.8799 29.1209 29.8791 27.1201 27.3223 26.3445C26.1867 26 24.7911 26 22 26H12C9.20888 26 7.81331 26 6.67772 26.3445C4.12091 27.1201 2.12008 29.1209 1.34448 31.6777C1 32.8133 1 34.2089 1 37M26 10C26 14.9706 21.9706 19 17 19C12.0294 19 8 14.9706 8 10C8 5.02944 12.0294 1 17 1C21.9706 1 26 5.02944 26 10Z" stroke="#525252" stroke-width="2" stroke-linecap="round" stroke-linejoin="round"/>
</svg>
