<?xml version="1.0" encoding="utf-8" ?>
<svg xmlns="http://www.w3.org/2000/svg" xmlns:xlink="http://www.w3.org/1999/xlink" width="1024" height="1024">
	<path fill="#D78E35" d="M0 0L381.126 0L407.438 0L1024 0L1024 104.157L1024 138.345L1024 1024L438.816 1024L430.964 1024L426.749 1024L0 1024L0 0ZM0 0L0 1024L426.749 1024C416.417 1019.98 400.295 1017.41 389.075 1014.66Q347.358 1004.17 305.491 994.294L177.037 963.288C146.831 955.855 116.563 947.518 86.0091 941.691L86.008 684.402L85.9749 601.729C85.9578 587.894 85.5556 573.985 85.9036 560.16C84.8752 548.908 85.5018 536.988 85.7671 525.696C85.9629 517.366 85.8404 509.033 86.0423 500.701C83.4189 498.668 10.2669 486.816 0.117391 485.716C3.01847 480.893 6.21127 476.244 9.09528 471.403C17.5109 457.277 25.3728 442.776 33.5572 428.511L61.5199 380.507C71.0387 363.899 81.8625 341.577 93.0119 326.702C101.588 329.423 111.814 329.066 120.773 329.63Q134.871 330.494 148.914 332C170.818 333.895 192.759 336.333 214.617 338.747C225.891 339.992 237.036 341.748 248.38 342.357C265.581 344.427 282.909 347.194 300.148 348.699C305.913 349.872 311.839 350.454 317.685 351.081C317.506 331.147 320.668 313.79 333.208 297.683C337.43 293.103 341.758 288.78 347.116 285.529C362.845 275.984 374.715 280.812 390.98 284.787C391.022 286.685 390.736 288.148 390.174 289.957C393.642 288.646 397.222 287.281 400.193 285.024L400.143 284.225C416.463 279.99 432.321 277.213 447.656 286.181Q449.98 287.527 452.164 289.091Q454.347 290.655 456.369 292.423Q458.391 294.19 460.233 296.145Q462.075 298.1 463.719 300.224C484.647 295.151 505.23 289.138 525.874 283.039C528.188 291.484 529.618 300.557 532.79 308.717C534.359 306.249 536.07 303.856 537.726 301.445C541.447 295.481 545.611 289.858 549.832 284.243Q547.14 273.243 543.684 262.459C541.652 255.955 539.198 249.27 538.068 242.549C534.691 232.547 531.934 222.378 528.959 212.255L516.725 170.979C513.611 160.232 511.477 148.983 507.024 138.684C504.251 132.271 500.692 126.682 496.015 121.492C486.728 111.19 461.493 91.9694 449.29 86.4511C445.249 84.6236 441.411 83.6734 436.975 83.4538C433.339 72.9769 431.081 61.7213 428.265 50.9659C430.586 49.9919 433.352 49.4074 435.78 48.6829C431.858 37.3423 430.671 23.4324 426.494 12.9776C422.543 3.08902 416.12 3.90875 407.812 0.174431C407.686 0.118049 407.562 0.0581438 407.438 0L381.126 0L0 0ZM407.438 0C407.562 0.0581438 407.686 0.118049 407.812 0.174431C416.12 3.90875 422.543 3.08902 426.494 12.9776C430.671 23.4324 431.858 37.3423 435.78 48.6829C433.352 49.4074 430.586 49.9919 428.265 50.9659C431.081 61.7213 433.339 72.9769 436.975 83.4538C441.411 83.6734 445.249 84.6236 449.29 86.4511C461.493 91.9694 486.728 111.19 496.015 121.492C500.692 126.682 504.251 132.271 507.024 138.684C511.477 148.983 513.611 160.232 516.725 170.979L528.959 212.255C531.934 222.378 534.691 232.547 538.068 242.549C539.198 249.27 541.652 255.955 543.684 262.459Q547.14 273.243 549.832 284.243C545.611 289.858 541.447 295.481 537.726 301.445C546.621 307.763 555.196 314.408 564.599 319.977C590.724 335.448 619.251 344.108 649.682 344.1C657.435 344.098 664.815 343.894 672.482 342.574C682.754 340.805 694.774 337.356 703.163 330.914L705.25 329.88C705.019 335.897 704.309 341.886 703.95 347.897Q707.274 348.042 710.592 347.8Q713.91 347.559 717.177 346.933C725.112 344.996 741.52 344.893 750.566 344.077C753.55 344.879 853.552 337.602 857.951 335.915C871.646 336.275 885.611 334.324 899.303 333.412C906.594 332.926 918.03 333.109 924.576 331.467C933.422 318.198 943.929 305.874 953.164 292.842C978.103 257.646 999.624 219.634 1013.56 178.693Q1017.66 166.573 1020.54 154.104C1021.69 149.047 1022.38 143.821 1023.85 138.848L1024 138.345L1024 104.157L1024 0L407.438 0ZM1024 138.345L1023.85 138.848C1022.38 143.821 1021.69 149.047 1020.54 154.104Q1017.66 166.573 1013.56 178.693C999.624 219.634 978.103 257.646 953.164 292.842C943.929 305.874 933.422 318.198 924.576 331.467C926.056 331.217 927.26 330.742 928.645 331.637C932.703 334.261 960.606 388.089 965.75 397.338L997.744 453.945C1006.09 468.933 1013.94 484.315 1023.16 498.788C992.344 502.16 961.257 503.426 930.472 506.963C930.519 524.876 929.757 543.185 930.678 561.05C931.428 575.312 930.908 589.796 930.907 604.086L930.959 678.835L930.915 850.899Q930.629 906.366 930.989 961.833C890.663 966.326 850.407 971.999 810.14 977.048L582.855 1005.77L482.248 1018.35L453.977 1021.94C449.027 1022.55 443.64 1022.76 438.816 1024L1024 1024L1024 138.345Z"/>
	<path fill="#C67826" d="M431.097 368.385C431.357 367.53 431.408 366.48 432.204 366.04C445.875 391.366 460.853 416.078 475.237 441.012L534.084 543.321Q589.404 537.535 644.839 532.981L825.616 516.466L890.407 510.674C903.773 509.502 917.155 508.629 930.472 506.963C930.519 524.876 929.757 543.185 930.678 561.05C919.874 563.886 907.797 563.904 896.684 565L833.587 571.32L622.962 592.511Q594.995 595.406 566.994 597.955C553.039 599.176 538.802 599.905 524.97 602.15C518.337 589.615 512.816 576.186 506.873 563.297L473.12 490.049C462.464 466.908 452.041 443.799 442.065 420.352C438.704 412.452 433.958 404.199 431.78 395.965C429.484 387.286 432.077 377.683 431.146 368.809C431.131 368.668 431.113 368.527 431.097 368.385Z"/>
	<path fill="#E6A44B" d="M430.811 421.77C431.844 442.965 430.915 463.96 431.091 485.139L431.478 654.139L431.083 968.592C430.934 987.059 431.233 1005.54 430.964 1024L426.749 1024C416.417 1019.98 400.295 1017.41 389.075 1014.66Q347.358 1004.17 305.491 994.294L177.037 963.288C146.831 955.855 116.563 947.518 86.0091 941.691L86.008 684.402L85.9749 601.729C85.9578 587.894 85.5556 573.985 85.9036 560.16C86.3025 555.738 86.1299 551.263 86.0827 546.827L250.642 580.935C285.191 588.03 320.176 594.284 354.394 602.835L415.414 459.765C420.782 447.224 425.253 434.19 430.811 421.77Z"/>
	<path fill="#E6A44B" d="M333.208 297.683C337.43 293.103 341.758 288.78 347.116 285.529C362.845 275.984 374.715 280.812 390.98 284.787C391.022 286.685 390.736 288.148 390.174 289.957C393.642 288.646 397.222 287.281 400.193 285.024L400.143 284.225C416.463 279.99 432.321 277.213 447.656 286.181Q449.98 287.527 452.164 289.091Q454.347 290.655 456.369 292.423Q458.391 294.19 460.233 296.145Q462.075 298.1 463.719 300.224C484.647 295.151 505.23 289.138 525.874 283.039C528.188 291.484 529.618 300.557 532.79 308.717C534.359 306.249 536.07 303.856 537.726 301.445C546.621 307.763 555.196 314.408 564.599 319.977C590.724 335.448 619.251 344.108 649.682 344.1C657.435 344.098 664.815 343.894 672.482 342.574C682.754 340.805 694.774 337.356 703.163 330.914L705.25 329.88C705.019 335.897 704.309 341.886 703.95 347.897Q707.274 348.042 710.592 347.8Q713.91 347.559 717.177 346.933C725.112 344.996 741.52 344.893 750.566 344.077C753.55 344.879 853.552 337.602 857.951 335.915C871.646 336.275 885.611 334.324 899.303 333.412C906.594 332.926 918.03 333.109 924.576 331.467C926.056 331.217 927.26 330.742 928.645 331.637C932.703 334.261 960.606 388.089 965.75 397.338L997.744 453.945C1006.09 468.933 1013.94 484.315 1023.16 498.788C992.344 502.16 961.257 503.426 930.472 506.963C917.155 508.629 903.773 509.502 890.407 510.674L825.616 516.466L644.839 532.981Q589.404 537.535 534.084 543.321L475.237 441.012C460.853 416.078 445.875 391.366 432.204 366.04C431.408 366.48 431.357 367.53 431.097 368.385Q397.756 427.123 362.721 484.866C351.269 504.071 340.11 523.539 328.252 542.492C319.45 540.099 310.116 538.804 301.122 537.249Q273.589 532.615 246.003 528.303L86.0423 500.701C83.4189 498.668 10.2669 486.816 0.117391 485.716C3.01847 480.893 6.21127 476.244 9.09528 471.403C17.5109 457.277 25.3728 442.776 33.5572 428.511L61.5199 380.507C71.0387 363.899 81.8625 341.577 93.0119 326.702C101.588 329.423 111.814 329.066 120.773 329.63Q134.871 330.494 148.914 332C170.818 333.895 192.759 336.333 214.617 338.747C225.891 339.992 237.036 341.748 248.38 342.357C265.581 344.427 282.909 347.194 300.148 348.699C305.913 349.872 311.839 350.454 317.685 351.081C317.506 331.147 320.668 313.79 333.208 297.683Z"/>
	<path fill="#AC6024" d="M537.726 301.445C546.621 307.763 555.196 314.408 564.599 319.977C590.724 335.448 619.251 344.108 649.682 344.1C657.435 344.098 664.815 343.894 672.482 342.574C682.754 340.805 694.774 337.356 703.163 330.914L705.25 329.88C705.019 335.897 704.309 341.886 703.95 347.897C679.532 350.98 654.87 351.658 630.331 353.315Q573.106 357.502 515.818 360.703C518.126 341.635 524.673 325.883 532.79 308.717C534.359 306.249 536.07 303.856 537.726 301.445Z"/>
	<path fill="#CA0E12" d="M333.208 297.683C337.43 293.103 341.758 288.78 347.116 285.529C362.845 275.984 374.715 280.812 390.98 284.787C391.022 286.685 390.736 288.148 390.174 289.957C393.642 288.646 397.222 287.281 400.193 285.024L400.143 284.225C416.463 279.99 432.321 277.213 447.656 286.181Q449.98 287.527 452.164 289.091Q454.347 290.655 456.369 292.423Q458.391 294.19 460.233 296.145Q462.075 298.1 463.719 300.224C484.647 295.151 505.23 289.138 525.874 283.039C528.188 291.484 529.618 300.557 532.79 308.717C524.673 325.883 518.126 341.635 515.818 360.703C500.684 362.642 484.168 364.53 468.917 363.881C464.944 364.678 460.598 364.722 456.544 364.976C448.895 365.455 441.147 365.768 433.491 365.342C426.245 364.938 418.963 363.625 411.77 362.647L379.694 358.439Q348.741 354.325 317.685 351.081C317.506 331.147 320.668 313.79 333.208 297.683Z"/>
	<path fill="#840B0D" d="M381.999 290.142C384.659 289.915 387.547 289.394 390.174 289.957C389.743 291.523 389.93 292.498 390.675 293.934C390.256 294.034 390.14 294.077 389.653 294.102C386.223 294.274 384.406 292.219 381.999 290.142Z"/>
	<path fill="#840B0D" d="M401.329 290.615C403.995 289.78 409.199 287.859 411.813 289.081C411.688 290.266 411.431 290.812 410.485 291.593C406.738 294.688 397.181 295.03 392.495 294.258C391.964 294.171 391.936 294.153 391.493 294.028C396.162 294.096 397.72 293.72 401.329 290.615Z"/>
	<path fill="#04822E" d="M400.193 285.024C400.567 286.886 400.9 288.766 401.329 290.615C397.72 293.72 396.162 294.096 391.493 294.028L390.675 293.934C389.93 292.498 389.743 291.523 390.174 289.957C393.642 288.646 397.222 287.281 400.193 285.024Z"/>
	<path fill="#E83428" d="M353.531 285.965C360.109 286.24 365.638 292.981 370.889 296.504C387.446 307.614 405.946 302.246 423.947 298.576C418.99 314.656 409.228 325.388 396.276 335.781Q395.519 336.304 394.752 336.812C383.547 344.241 370.396 351.408 356.441 348.359C349.169 346.77 342.769 341.966 338.927 335.626C334.286 327.968 333.748 318.788 335.899 310.263C338.489 299.997 344.442 291.415 353.531 285.965Z"/>
	<defs>
		<linearGradient id="gradient_0" gradientUnits="userSpaceOnUse" x1="535.04541" y1="298.39822" x2="461.78595" y2="349.51001">
			<stop offset="0" stop-color="#3EAD9F"/>
			<stop offset="1" stop-color="#2FB4BF"/>
		</linearGradient>
	</defs>
	<path fill="url(#gradient_0)" d="M525.874 283.039C528.188 291.484 529.618 300.557 532.79 308.717C524.673 325.883 518.126 341.635 515.818 360.703C500.684 362.642 484.168 364.53 468.917 363.881C471.432 358.748 473.549 353.339 474.704 347.727C478.258 330.458 473.174 314.576 463.719 300.224C484.647 295.151 505.23 289.138 525.874 283.039Z"/>
	<path fill="#FFD8C1" d="M871.116 43.4239C872.981 44.822 874.558 46.418 876.185 48.0754C873.263 49.5985 870.436 51.2042 867.625 52.9233C868.251 49.5381 869.59 46.4822 871.116 43.4239Z"/>
	<path fill="#D04C5E" d="M646.852 89.2826C644.642 88.2545 642.73 87.4321 641.752 85.0335C639.265 78.9335 643.84 66.342 646.517 60.8143C647.621 58.534 649.391 56.2216 651.901 55.4156C659.197 53.0719 709.22 68.822 716.714 73.2416C718.887 74.5228 720.876 75.7879 721.461 78.3827C722.707 83.9078 718.047 100.825 714.808 105.415C713.639 107.071 712.162 108.248 710.107 108.513Q709.604 108.579 709.096 108.578Q708.588 108.576 708.085 108.506Q707.583 108.437 707.094 108.301Q706.604 108.164 706.138 107.964C699.028 104.748 690.787 102.661 683.328 100.386L646.852 89.2826Z"/>
	<path fill="#9CDCED" d="M646.852 89.2826L683.328 100.386C690.787 102.661 699.028 104.748 706.138 107.964C695.957 139.103 699.944 171.948 714.764 200.964C717.007 205.354 719.612 209.762 722.614 213.675C731.789 232.087 727.682 252.596 720.636 271.093C720.602 271.181 720.554 271.264 720.513 271.349C718.066 279.48 708.128 316.929 704.475 322.194C704.709 325.784 705.649 327.892 703.163 330.914C694.774 337.356 682.754 340.805 672.482 342.574C664.815 343.894 657.435 344.098 649.682 344.1C619.251 344.108 590.724 335.448 564.599 319.977C555.196 314.408 546.621 307.763 537.726 301.445C541.447 295.481 545.611 289.858 549.832 284.243Q547.14 273.243 543.684 262.459C541.652 255.955 539.198 249.27 538.068 242.549C541.124 236.28 542.838 229.271 544.845 222.612L553.375 194.606C555.541 187.553 557.605 180.393 561.485 174.049C564.28 169.479 567.738 165.845 572.24 162.929C582.363 156.372 594.9 154.691 605.248 148.301C625.795 135.616 641.314 112.668 646.852 89.2826Z"/>
	<path fill="#C67826" d="M549.832 284.243C570.363 263.372 589.422 249.674 619.913 249.471Q620.938 249.472 621.962 249.499Q622.987 249.525 624.01 249.577Q625.034 249.628 626.056 249.705Q627.078 249.781 628.098 249.883Q629.117 249.985 630.134 250.112Q631.151 250.238 632.165 250.39Q633.179 250.542 634.188 250.718Q635.198 250.895 636.203 251.096Q637.208 251.297 638.207 251.523Q639.207 251.749 640.201 251.999Q641.194 252.249 642.182 252.524Q643.169 252.798 644.149 253.097Q645.13 253.396 646.102 253.719Q647.075 254.041 648.04 254.388Q649.004 254.734 649.96 255.104Q650.916 255.474 651.862 255.868Q652.808 256.261 653.745 256.678Q654.681 257.094 655.607 257.534Q656.533 257.973 657.448 258.435Q658.362 258.897 659.266 259.382Q660.169 259.866 661.06 260.372Q661.951 260.879 662.829 261.407Q663.707 261.935 664.573 262.484Q665.438 263.034 666.289 263.604Q667.14 264.175 667.977 264.766Q668.815 265.357 669.637 265.969Q670.459 266.581 671.266 267.212Q672.073 267.844 672.865 268.495Q673.656 269.146 674.431 269.817Q675.206 270.487 675.964 271.177Q676.723 271.866 677.464 272.574Q678.205 273.281 678.929 274.007C691.571 286.625 701.328 304.566 704.475 322.194C704.709 325.784 705.649 327.892 703.163 330.914C694.774 337.356 682.754 340.805 672.482 342.574C664.815 343.894 657.435 344.098 649.682 344.1C619.251 344.108 590.724 335.448 564.599 319.977C555.196 314.408 546.621 307.763 537.726 301.445C541.447 295.481 545.611 289.858 549.832 284.243Z"/>
	<path fill="#F8BB31" d="M878.231 47.327C907.283 32.7469 940.485 19.9012 973.007 30.8711C991.9 37.2438 1005.77 51.0426 1014.38 68.8005C1016.74 73.683 1018.52 78.7087 1020.14 83.8788C1021.75 90.5433 1021.94 97.6612 1024 104.157L1024 138.345L1023.85 138.848C1022.38 143.821 1021.69 149.047 1020.54 154.104Q1017.66 166.573 1013.56 178.693C999.624 219.634 978.103 257.646 953.164 292.842C943.929 305.874 933.422 318.198 924.576 331.467C918.03 333.109 906.594 332.926 899.303 333.412C885.611 334.324 871.646 336.275 857.951 335.915C853.552 337.602 753.55 344.879 750.566 344.077C741.52 344.893 725.112 344.996 717.177 346.933Q713.91 347.559 710.592 347.8Q707.274 348.042 703.95 347.897C704.309 341.886 705.019 335.897 705.25 329.88L703.163 330.914C705.649 327.892 704.709 325.784 704.475 322.194C708.128 316.929 718.066 279.48 720.513 271.349C720.554 271.264 720.602 271.181 720.636 271.093C727.682 252.596 731.789 232.087 722.614 213.675C726.866 200.736 743.377 178.035 751.825 167.066C752.342 165.899 753.314 164.768 754.045 163.711C771.154 140.252 790.225 119.217 810.54 98.5108L812.399 96.769C828.524 80.8488 847.063 65.8867 866.468 54.1432L867.625 52.9233C870.436 51.2042 873.263 49.5985 876.185 48.0754L878.231 47.327Z"/>
	<path fill="#D78E35" d="M720.513 271.349C723.081 273.848 725.252 276.745 727.524 279.508C743.309 298.7 748.67 319.689 750.566 344.077C741.52 344.893 725.112 344.996 717.177 346.933Q713.91 347.559 710.592 347.8Q707.274 348.042 703.95 347.897C704.309 341.886 705.019 335.897 705.25 329.88L703.163 330.914C705.649 327.892 704.709 325.784 704.475 322.194C708.128 316.929 718.066 279.48 720.513 271.349Z"/>
	<path fill="#F8BB31" d="M705.25 329.88C710.126 333.907 714.565 341.234 717.177 346.933Q713.91 347.559 710.592 347.8Q707.274 348.042 703.95 347.897C704.309 341.886 705.019 335.897 705.25 329.88Z"/>
	<path fill="#D78E35" d="M878.231 47.327C900.586 68.0106 914.149 89.6056 915.39 120.746C916.074 137.923 911.552 155.396 905.507 171.366C900.149 164.895 895.324 157.778 890.553 150.867C870.206 121.395 862.157 98.7493 865.567 62.4391C865.824 59.6989 866.375 56.8747 866.468 54.1432L867.625 52.9233C870.436 51.2042 873.263 49.5985 876.185 48.0754L878.231 47.327Z"/>
	<path fill="#D78E35" d="M810.54 98.5108L812.399 96.769C839.264 119.91 858.501 144.377 861.397 180.998C862.834 199.175 858.624 218.014 853.955 235.508C848.071 228.467 842.639 220.848 837.44 213.287C810.159 173.616 809.308 144.694 810.54 98.5108Z"/>
	<path fill="#D78E35" d="M751.825 167.066C752.342 165.899 753.314 164.768 754.045 163.711C759.224 166.625 763.984 171.012 768.215 175.149C783.606 190.202 795.041 208.339 800.887 229.128C807.733 253.474 804.408 279.106 797.641 303.083C773.723 271.555 752.178 243.17 750.057 201.826C749.705 194.975 750.066 188.163 750.681 181.342C751.071 177.01 752.382 171.301 751.825 167.066Z"/>
	<path fill="#D78E35" d="M1020.14 83.8788C1021.75 90.5433 1021.94 97.6612 1024 104.157L1024 138.345L1023.85 138.848C1022.38 143.821 1021.69 149.047 1020.54 154.104Q1017.66 166.573 1013.56 178.693C999.624 219.634 978.103 257.646 953.164 292.842C943.929 305.874 933.422 318.198 924.576 331.467C918.03 333.109 906.594 332.926 899.303 333.412C885.611 334.324 871.646 336.275 857.951 335.915C868.421 325.449 879.048 315.192 889.271 304.475C926.197 265.767 961.925 222.713 987.372 175.517C997.833 156.116 1007 136.055 1013 114.799Q1015.17 107.187 1016.39 99.3669C1016.99 95.3883 1016.86 89.9287 1018.22 86.2302C1018.57 85.2831 1019.44 84.5584 1020.14 83.8788Z"/>
	<path fill="#D78E35" d="M381.126 0L407.438 0C407.562 0.0581438 407.686 0.118049 407.812 0.174431C416.12 3.90875 422.543 3.08902 426.494 12.9776C430.671 23.4324 431.858 37.3423 435.78 48.6829C433.352 49.4074 430.586 49.9919 428.265 50.9659C416.497 54.4868 404.602 57.4026 392.734 60.5496C382.531 63.255 372.393 66.1912 362.144 68.7218C359.588 69.6809 356.775 70.2231 354.129 70.907C351.151 56.5295 347.014 42.3369 344.366 27.9048C344.839 26.7501 345.323 25.5932 345.884 24.4776C352.817 10.6962 367.267 4.61048 381.126 0Z"/>
	<path fill="#479C35" d="M93.0119 326.702C86.9039 314.363 78.3704 303.152 71.2279 291.374C52.1425 259.902 32.506 228.701 13.7458 197.045C5.65086 183.385 -2.16728 169.597 2.16445 153.197C4.97583 142.553 12.4191 132.994 21.9597 127.521Q22.8395 127.027 23.7425 126.576Q24.6454 126.126 25.5694 125.72Q26.4934 125.315 27.4361 124.955Q28.3789 124.595 29.3381 124.282Q30.2974 123.969 31.2709 123.703Q32.2443 123.438 33.2296 123.22Q34.215 123.002 35.2098 122.833Q36.2046 122.664 37.2065 122.544Q38.2084 122.424 39.2149 122.353Q40.2215 122.282 41.2304 122.261Q42.2392 122.24 43.2479 122.268Q44.2566 122.296 45.2627 122.374Q46.2687 122.451 47.2698 122.578Q48.2709 122.705 49.2645 122.88Q50.2582 123.056 51.242 123.281Q52.2258 123.505 53.1975 123.777C68.9798 128.205 75.643 140.754 83.0594 154.125C76.2931 162.707 69.9673 175.611 71.3572 186.847C72.1255 193.058 74.5073 199.139 77.1907 204.75C82.9755 216.846 90.7115 228.234 97.5044 239.803C111.786 264.124 126.207 288.475 139.19 313.511C141.782 318.508 148.023 326.75 148.914 332Q134.871 330.494 120.773 329.63C111.814 329.066 101.588 329.423 93.0119 326.702Z"/>
	<path fill="#6BC13B" d="M83.0594 154.125C92.4459 146.038 101.76 140.623 114.54 141.486C125.445 142.222 135.072 147.284 142.167 155.553C151.082 165.944 160.591 185.715 167.796 198.363C177.021 214.554 186.834 230.426 195.988 246.648C200.178 254.074 204.989 267.83 211.55 272.686C214.709 281.019 219.626 288.829 223.947 296.604Q232.316 311.745 240.446 327.015C243.068 331.902 246.546 337.17 248.38 342.357C237.036 341.748 225.891 339.992 214.617 338.747C192.759 336.333 170.818 333.895 148.914 332C148.023 326.75 141.782 318.508 139.19 313.511C126.207 288.475 111.786 264.124 97.5044 239.803C90.7115 228.234 82.9755 216.846 77.1907 204.75C74.5073 199.139 72.1255 193.058 71.3572 186.847C69.9673 175.611 76.2931 162.707 83.0594 154.125Z"/>
	<path fill="#479C35" d="M258.231 155.617L262.519 157.483C275.189 163.635 284.474 170.522 294.026 180.885C299.027 175.501 303.88 170.611 309.826 166.235C316.589 179.894 320.489 192.109 325.606 206.262C328.235 197.888 332.073 186.923 340.414 182.49C340.555 182.416 340.705 182.358 340.85 182.292C342.171 181.718 343.065 181.016 344.509 181.303C350.909 196.091 357.281 210.672 364.24 225.222C368.315 219.797 373.225 215.153 377.699 210.07C381.114 218.592 384.361 227.601 385.775 236.7L378.047 238.704C380.233 245.286 382.803 251.753 384.817 258.388C387.18 266.171 388.99 274.129 391.133 281.976L390.98 284.787C374.715 280.812 362.845 275.984 347.116 285.529C341.758 288.78 337.43 293.103 333.208 297.683C320.668 313.79 317.506 331.147 317.685 351.081C311.839 350.454 305.913 349.872 300.148 348.699C282.909 347.194 265.581 344.427 248.38 342.357C246.546 337.17 243.068 331.902 240.446 327.015Q232.316 311.745 223.947 296.604C219.626 288.829 214.709 281.019 211.55 272.686C215.506 274.255 219.44 275.795 223.496 277.091C216.863 260.62 207.286 245.629 200.389 229.366C210.72 229.93 220.166 233.315 229.654 237.141C222.614 223.291 219.074 207.894 217.772 192.524C227.294 192.693 235.603 194.769 244.487 198.008C246.357 198.703 248.479 198.967 250.436 199.356C249.89 197.368 249.299 195.38 248.913 193.353C246.237 179.277 250.366 167.257 258.231 155.617Z"/>
	<path fill="#04822E" d="M258.231 155.617L262.519 157.483C261.56 160.344 261.781 161.112 263.136 163.815C265.627 168.785 268.672 173.519 271.351 178.394L289.542 211.93C297.847 227.283 305.385 243.134 313.485 258.62C320.219 271.492 327.461 284.344 333.208 297.683C320.668 313.79 317.506 331.147 317.685 351.081C311.839 350.454 305.913 349.872 300.148 348.699C297.758 344.22 294.737 339.363 294.276 334.196C293.716 327.93 297.094 323.1 300.976 318.598C296.15 315.801 291.074 313.044 286.926 309.266C283.192 305.864 280.13 301.58 280.005 296.353C279.859 290.252 283.453 285.563 287.387 281.331C275.271 274.771 263.612 267.113 258.556 253.788C260.729 249.374 263.036 245.863 266.398 242.269C262.809 239.831 258.741 238.241 255.118 235.862C248.151 231.286 245.154 222.015 243.618 214.194C242.67 209.369 241.636 202.286 244.487 198.008C246.357 198.703 248.479 198.967 250.436 199.356C249.89 197.368 249.299 195.38 248.913 193.353C246.237 179.277 250.366 167.257 258.231 155.617Z"/>
	<path fill="#006C26" d="M262.519 157.483C275.189 163.635 284.474 170.522 294.026 180.885C299.027 175.501 303.88 170.611 309.826 166.235C316.589 179.894 320.489 192.109 325.606 206.262C328.235 197.888 332.073 186.923 340.414 182.49C340.555 182.416 340.705 182.358 340.85 182.292C342.171 181.718 343.065 181.016 344.509 181.303C350.909 196.091 357.281 210.672 364.24 225.222C368.315 219.797 373.225 215.153 377.699 210.07C381.114 218.592 384.361 227.601 385.775 236.7L378.047 238.704C380.233 245.286 382.803 251.753 384.817 258.388C387.18 266.171 388.99 274.129 391.133 281.976L390.98 284.787C374.715 280.812 362.845 275.984 347.116 285.529C341.758 288.78 337.43 293.103 333.208 297.683C327.461 284.344 320.219 271.492 313.485 258.62C305.385 243.134 297.847 227.283 289.542 211.93L271.351 178.394C268.672 173.519 265.627 168.785 263.136 163.815C261.781 161.112 261.56 160.344 262.519 157.483Z"/>
	<path fill="#027AC5" d="M362.144 68.7218C372.393 66.1912 382.531 63.255 392.734 60.5496C404.602 57.4026 416.497 54.4868 428.265 50.9659C431.081 61.7213 433.339 72.9769 436.975 83.4538C441.411 83.6734 445.249 84.6236 449.29 86.4511C461.493 91.9694 486.728 111.19 496.015 121.492C500.692 126.682 504.251 132.271 507.024 138.684C511.477 148.983 513.611 160.232 516.725 170.979L528.959 212.255C531.934 222.378 534.691 232.547 538.068 242.549C539.198 249.27 541.652 255.955 543.684 262.459Q547.14 273.243 549.832 284.243C545.611 289.858 541.447 295.481 537.726 301.445C536.07 303.856 534.359 306.249 532.79 308.717C529.618 300.557 528.188 291.484 525.874 283.039C505.23 289.138 484.647 295.151 463.719 300.224Q462.075 298.1 460.233 296.145Q458.391 294.19 456.369 292.423Q454.347 290.655 452.164 289.091Q449.98 287.527 447.656 286.181C432.321 277.213 416.463 279.99 400.143 284.225L400.193 285.024C397.222 287.281 393.642 288.646 390.174 289.957C390.736 288.148 391.022 286.685 390.98 284.787L391.133 281.976C388.99 274.129 387.18 266.171 384.817 258.388C382.803 251.753 380.233 245.286 378.047 238.704L385.775 236.7C384.361 227.601 381.114 218.592 377.699 210.07C373.225 215.153 368.315 219.797 364.24 225.222C357.281 210.672 350.909 196.091 344.509 181.303C343.065 181.016 342.171 181.718 340.85 182.292Q339.776 178.606 339.139 174.821C338.16 168.886 337.992 162.718 339.184 156.801C343.052 137.602 359.558 117.137 370.843 101.243C367.598 90.555 364.552 79.6311 362.144 68.7218ZM385.775 236.7L378.047 238.704C380.233 245.286 382.803 251.753 384.817 258.388C387.18 266.171 388.99 274.129 391.133 281.976L390.98 284.787C391.022 286.685 390.736 288.148 390.174 289.957C393.642 288.646 397.222 287.281 400.193 285.024L400.143 284.225C416.463 279.99 432.321 277.213 447.656 286.181Q449.98 287.527 452.164 289.091Q454.347 290.655 456.369 292.423Q458.391 294.19 460.233 296.145Q462.075 298.1 463.719 300.224C484.647 295.151 505.23 289.138 525.874 283.039C522.369 273.424 519.825 263.298 516.994 253.462Q509.925 228.291 502.07 203.354Q468.041 213.368 433.825 222.723C417.823 227.138 401.386 231.044 385.775 236.7Z"/>
	<path fill="#479C35" d="M401.067 247.896C404.793 253.507 406.339 259.616 410.942 264.779C406.54 270.5 401.945 277.122 400.143 284.225L400.193 285.024C397.222 287.281 393.642 288.646 390.174 289.957C390.736 288.148 391.022 286.685 390.98 284.787L391.133 281.976L391.637 281.832C391.973 280.954 392.29 280.07 392.614 279.188C396.338 269.043 397.08 258.146 401.067 247.896Z"/>
	<path fill="#6BC13B" d="M401.067 247.896C402.873 243.107 404.906 236.353 409.864 233.91C411.802 232.955 413.934 232.982 415.917 233.792C420.764 235.772 424.275 241.334 426.683 245.766C422.413 252.992 415.935 258.161 410.942 264.779C406.339 259.616 404.793 253.507 401.067 247.896Z"/>
</svg>
