<svg width="1024" height="1024" viewBox="0 0 1024 1024" fill="none" xmlns="http://www.w3.org/2000/svg">
<g clip-path="url(#clip0_60_210)">
<path d="M690.302 64.6644C691.308 60.2171 692.063 57.4179 696.201 54.7843C707.449 47.622 730.59 50.9733 742.848 53.8991C757.276 57.3428 781.811 65.6569 790.254 78.7905C791.995 81.4983 792.475 84.1498 791.712 87.249C791.455 88.2971 791.143 89.3321 790.831 90.3662C790.576 90.4123 790.319 90.4544 790.064 90.5037C786.237 91.2486 782.633 93.6409 778.811 94.6375C766.05 97.9655 749.58 96.5225 736.989 92.8056C723.326 89.4295 709.519 83.8321 698.668 74.7893C695.983 72.5515 692.686 65.5164 690.302 64.6644Z" fill="#F00D38"/>
<path d="M690.305 64.6652C692.688 65.5176 695.986 72.5534 698.671 74.7916C709.522 83.8359 723.329 89.4349 736.992 92.8126C749.582 96.531 766.051 97.9756 778.811 94.6487C782.634 93.6524 786.237 91.2603 790.064 90.5157C790.318 90.4665 790.575 90.4244 790.831 90.3783L782.484 121.848C780.894 127.841 779.751 134.542 777.023 140.117C775.941 142.329 774.422 143.826 772.43 145.252C766.103 148.31 759.535 149.789 752.452 149.888C741.395 149.755 729.805 148.428 719.261 144.968C704.347 140.485 688.529 134.125 679.294 121.124C678.361 119.395 677.62 117.701 677.623 115.707C677.634 108.644 681.057 100.107 682.894 93.2466L690.305 64.6652Z" fill="#D00C27"/>
<path d="M679.294 121.124C688.528 134.125 704.346 140.485 719.26 144.968C729.804 148.428 741.395 149.755 752.452 149.888C759.535 149.789 766.102 148.31 772.429 145.252C773.171 150.65 775.304 155.995 776.793 161.244C778.706 167.987 779.68 174.961 780.174 181.929C780.772 190.339 780.475 198.792 780.193 207.205C779.929 215.097 778.93 223.71 781.028 231.429C782.214 235.788 784.648 239.835 787.317 243.478C793.309 251.66 800.566 258.919 806.554 267.136C795.287 271.762 786.399 278.665 781.219 289.826C775.951 301.384 770.975 313.406 764.866 324.554C759.581 335.502 754.45 346.519 749.472 357.606C738.866 378.884 728.178 400.35 718.63 422.113C691.06 419.288 663.423 416.291 635.814 413.938L607.974 411.802C603.162 411.435 597.775 411.376 593.076 410.273C589.55 408.384 585.204 407.057 581.464 405.522C573.088 402.105 564.743 398.619 556.427 395.062C544.824 389.402 532.476 384.984 520.681 379.679C531.049 342.916 540.343 305.761 550.001 268.808C554.154 252.35 559.806 241.609 571.491 229.17C588.318 213.759 603.48 210.511 621.218 199.067C636.587 194.864 649.266 160.822 657.699 147.704C663.675 138.41 671.419 128.925 679.294 121.124Z" fill="#93E4F3"/>
<path d="M550.002 268.808C570.568 274.619 591.374 279.733 612.065 285.097L764.866 324.554C759.582 335.502 754.45 346.519 749.473 357.606C738.867 378.884 728.178 400.35 718.63 422.113C691.06 419.287 663.424 416.291 635.814 413.938L607.974 411.802C603.162 411.435 597.776 411.376 593.077 410.273C589.551 408.384 585.205 407.057 581.465 405.522C573.089 402.105 564.743 398.619 556.428 395.062C544.825 389.401 532.476 384.984 520.681 379.678C531.049 342.916 540.344 305.761 550.002 268.808Z" fill="#30B1E2"/>
<path d="M550.002 268.808C570.568 274.619 591.374 279.733 612.065 285.097L764.866 324.554C759.582 335.502 754.45 346.519 749.473 357.606L645.42 330.822L612.363 322.284C605.911 320.623 599.258 318.498 592.656 317.624C588.909 317.128 585.435 317.647 582.116 319.46C579.078 321.118 577.058 323 575.429 325.997C571.645 332.96 570.185 342.559 568.166 350.201L557.651 390.097C557.222 391.747 556.814 393.402 556.428 395.062C544.825 389.401 532.476 384.984 520.681 379.678C531.049 342.916 540.344 305.761 550.002 268.808Z" fill="#09C7E5"/>
<path d="M463.675 247.067C464.151 243.45 464.505 240.946 467.595 238.614C481.547 228.086 521.843 229.018 539.068 231.881C546.533 233.122 556.073 235.343 560.628 241.961C562.043 244.018 562.409 246.269 562.552 248.708C543.558 260.446 518.974 261.236 497.274 258.734C488.204 257.688 469.797 254.84 463.675 247.067Z" fill="#E7E8E5"/>
<path d="M463.6 298.586C463.477 281.446 463.41 264.196 463.675 247.067C469.797 254.84 488.204 257.688 497.274 258.734C518.974 261.236 543.558 260.446 562.552 248.708C562.632 255.143 562.414 261.62 562.604 268.044C562.821 273.554 563.194 297.211 560.952 300.701C553.854 301.965 546.838 303.803 539.71 304.867C525.219 307.031 509.163 307.232 494.593 305.725C486.34 304.872 474.783 301.134 467.393 301.337C466.059 300.515 464.845 299.535 463.6 298.586Z" fill="#9ADAF5"/>
<path d="M297.611 8.35889C313.947 12.3338 331.214 17.3458 345.343 26.7127C359.156 35.8699 377.921 58.4178 389.971 71.0241L461.411 145.296C455.729 148.776 449.456 151.4 443.407 154.171C432.236 159.287 420.897 164.178 409.87 169.589C409.967 175.063 409.997 180.548 410.296 186.015L358.296 186.369C349.924 186.426 341.462 186.844 333.102 186.417C333.046 165.571 336.081 134.986 323.886 117.325C320.294 113.289 318.651 107.286 316.22 102.488C308.223 86.705 294.042 75.7832 278.448 68.079C276.77 67.1004 274.984 66.3137 273.229 65.4867C275.863 61.4881 277.479 55.3034 279.416 50.8002L297.611 8.35889Z" fill="#9DA0A1"/>
<path d="M807.827 223.441L848.09 239.618C855.731 242.685 863.808 245.447 871.211 249.014C866.163 263.981 861.215 278.98 856.367 294.013C854.434 300.11 852.165 306.275 850.618 312.471C838.824 308.711 826.789 305.07 815.403 300.192C800.022 293.601 786.066 284.93 772 275.963C778.121 269.371 782.48 261.077 787.456 253.602C794.18 243.502 801.187 233.598 807.827 223.441Z" fill="#E92B2C"/>
<path d="M636.052 406.126C639.586 402.291 642.493 396.76 645.475 392.382C650.634 384.813 656.031 377.418 661.665 370.195C685.342 339.597 714.44 311.482 746.639 290.002C754.803 284.556 762.753 279.428 772 275.963C786.066 284.93 800.022 293.601 815.403 300.192C826.789 305.07 838.824 308.711 850.618 312.471C854.58 325.67 855.662 338.561 855.857 352.277C855.946 358.548 854.293 366.901 856.276 372.849C851.521 400.103 847.247 427.005 838.56 453.373C835.722 459.671 833.049 467.837 832.025 474.673C816.764 476.605 801.548 478.729 786.251 480.358C782.351 480.774 778.104 481.928 774.247 482.022C765.41 485.361 746.857 486.268 737.055 487.355C706.658 490.726 675.547 495.093 644.959 495.082C641.982 496.102 638.553 496.261 635.427 496.35C636.348 487.383 635.514 476.528 635.512 467.38C635.507 446.946 635.461 426.554 636.052 406.126Z" fill="#7FDC2E"/>
<path d="M644.959 495.082C654.557 471.988 667.015 444.558 687.259 428.958C699.46 419.556 715.981 414.89 731.286 417.04C745.07 418.977 758.565 426.057 766.955 437.321C776.994 450.8 776.548 466.177 774.247 482.022C765.41 485.361 746.857 486.268 737.055 487.355C706.658 490.726 675.547 495.093 644.959 495.082Z" fill="#E7E8E5"/>
<path d="M560.952 300.701L561.377 301.281C565.968 307.468 572.718 312.597 578.434 317.778C588.509 326.911 598.386 336.266 608.387 345.481C614.834 351.423 621.936 357.218 627.69 363.835C630.499 367.066 633.295 370.842 634.613 374.96C637.744 384.741 635.783 396.014 636.052 406.126C635.461 426.554 635.507 446.946 635.512 467.38C635.514 476.528 636.348 487.383 635.427 496.35C638.553 496.261 641.982 496.102 644.959 495.082C675.547 495.093 706.658 490.726 737.055 487.355C746.857 486.268 765.41 485.361 774.247 482.022C778.104 481.928 782.351 480.774 786.251 480.358C801.548 478.729 816.764 476.605 832.025 474.673C833.049 467.837 835.722 459.671 838.56 453.373C860.481 458.593 884.998 460.028 907.171 465.046C911.386 465.567 912.893 467.522 915.398 470.754C927.028 485.758 937.622 501.84 948.416 517.461L985.728 570.701C998.225 588.607 1010.61 606.786 1024 624.039V631.271L944.736 639.888C924.462 642.157 904.036 644.913 883.668 646.085C864.604 647.668 845.535 649.984 826.509 651.997L708.069 665.112C682.024 668.109 655.877 671.996 629.716 673.666C620.827 660.494 611.408 647.632 602.229 634.659L551.256 562.634C545.307 554.288 539.489 545.853 533.801 537.328C527.565 528.015 521.426 518.066 513.606 509.985L512.802 509.631C506.859 513.712 483.327 548.86 477.382 557.283L425.728 630.393C415.213 645.316 405.134 660.524 393.92 674.941C379.305 672.871 364.589 671.439 349.936 669.654L232.657 655.871L171.827 648.786C161.439 647.575 150.688 645.695 140.268 645.335C93.4263 640.887 46.7665 634.571 0 629.422V626.365C39.8337 574.001 73.6773 520.47 112 467C114.649 465.348 120.003 465.274 123 464.552C136.147 465.901 128.383 463.194 144 463C147.902 462.761 151.527 467.074 154.5 470C154.639 466.91 156.897 472.359 154.5 470C154.435 471.756 172 467 173.585 467L180.5 473.5C186.699 476.547 248.523 479.853 259.59 480.961C264.939 481.251 289.102 484.234 291.499 483.609L291.796 482.599C292.23 483.456 292.118 483.703 293.075 484.057C296.241 485.227 309.802 486.111 314.044 486.571L370.253 492.635C377.166 493.374 384.569 494.994 391.469 495.104L391.507 417.673C391.508 405.916 390.386 390.446 391.977 379.136C392.443 375.823 393.704 373.029 395.64 370.316C401.096 362.666 409.496 356.297 416.423 349.931C429.013 338.361 441.917 326.811 453.724 314.445C458.318 310.073 462.96 305.882 467.393 301.337C474.783 301.134 486.34 304.872 494.593 305.725C509.163 307.232 525.219 307.031 539.71 304.867C546.838 303.803 553.854 301.965 560.952 300.701Z" fill="#EACA83"/>
<path d="M838.56 453.373C860.481 458.593 884.998 460.028 907.171 465.046C902.154 468.14 840.598 474.218 832.025 474.673C833.049 467.837 835.722 459.671 838.56 453.373Z" fill="#966529"/>
<path d="M560.952 300.701L561.377 301.281C565.968 307.468 572.718 312.597 578.434 317.778C588.509 326.911 598.386 336.266 608.387 345.481C614.834 351.423 621.936 357.218 627.69 363.835C630.499 367.066 633.295 370.842 634.613 374.96C637.744 384.741 635.783 396.014 636.052 406.126C635.461 426.554 635.507 446.946 635.512 467.38C635.514 476.528 636.348 487.383 635.427 496.35C608.594 498.861 581.743 502.114 554.952 505.092C542.928 506.429 530.642 508.539 518.576 508.992C505.28 509.491 492.418 507.712 479.27 506.086L442.677 501.552L410.467 497.67C404.164 496.914 397.691 496.365 391.469 495.104L391.507 417.673C391.508 405.916 390.386 390.446 391.977 379.136C392.443 375.823 393.704 373.029 395.64 370.316C401.096 362.666 409.496 356.297 416.423 349.931C429.013 338.361 441.917 326.811 453.724 314.445C458.318 310.073 462.96 305.882 467.393 301.337C474.783 301.134 486.34 304.872 494.593 305.725C509.163 307.232 525.219 307.031 539.71 304.867C546.838 303.803 553.854 301.965 560.952 300.701Z" fill="#05B962"/>
<path d="M69.4198 248.984C59.8623 246.362 55.0282 249.948 46.4417 240.818C41.956 236.049 39.8126 229.752 40.088 223.241C40.1032 222.841 40.1283 222.442 40.1632 222.044C40.1981 221.645 40.2429 221.248 40.2974 220.851C40.352 220.455 40.4163 220.06 40.4903 219.667C40.5644 219.274 40.648 218.883 40.7413 218.494C40.8346 218.105 40.9375 217.719 41.05 217.335C41.1624 216.951 41.2842 216.57 41.4154 216.192C41.5466 215.814 41.687 215.44 41.8367 215.069C41.9864 214.698 42.1452 214.33 42.313 213.967C42.4808 213.604 42.6575 213.246 42.843 212.891C43.0285 212.536 43.2226 212.187 43.4254 211.842C43.6282 211.497 43.8394 211.158 44.0589 210.823C44.2784 210.489 44.5061 210.16 44.7418 209.837C44.9776 209.514 45.2212 209.196 45.4726 208.885C45.7241 208.574 45.983 208.27 46.2495 207.971C46.516 207.673 46.7896 207.381 47.0705 207.096C47.3513 206.811 47.639 206.534 47.9336 206.263C53.7023 200.969 60.7885 199.264 68.3909 199.445C76.3138 203.402 84.1746 208.679 87.2606 217.398C87.3985 217.789 87.5266 218.184 87.6449 218.582C87.7631 218.98 87.8713 219.381 87.9695 219.784C88.0678 220.187 88.1558 220.592 88.2338 221C88.3118 221.407 88.3796 221.817 88.4371 222.228C88.4946 222.639 88.5419 223.051 88.5788 223.464C88.6157 223.878 88.6423 224.292 88.6586 224.707C88.6749 225.122 88.6808 225.536 88.6763 225.951C88.6718 226.366 88.657 226.781 88.6318 227.195C88.6066 227.609 88.5711 228.022 88.5253 228.435C88.4794 228.848 88.4233 229.259 88.357 229.669C88.2906 230.078 88.2141 230.486 88.1274 230.892C88.0406 231.298 87.9439 231.701 87.837 232.102C87.7301 232.503 87.6132 232.902 87.4865 233.297C87.3597 233.692 87.2231 234.083 87.0768 234.472C86.9305 234.86 86.7745 235.244 86.609 235.625C86.4435 236.006 86.2685 236.382 86.0842 236.754C83.5914 241.681 78.9038 246.286 73.5392 247.913C72.183 248.324 70.7979 248.655 69.4198 248.984Z" fill="#1594D5"/>
<path d="M258.504 0H265.792C275.509 4.13041 287.323 5.89719 297.611 8.35885L279.416 50.8002C277.479 55.3034 275.863 61.4881 273.229 65.4867L272.386 65.1083C264.362 61.4324 248.362 52.3659 242.887 45.4672C241.819 44.1219 241.228 42.4841 240.624 40.8946C243.835 29.5865 251.935 9.73231 258.504 0Z" fill="#E92B2C"/>
<path d="M89.2837 259.765C97.5103 264.658 118.272 274.384 122.363 282.683C120.583 285.055 118.857 287.83 116.864 289.998C105.861 309.269 104.671 330.615 89.1731 348.875C85.2936 353.446 80.6989 358.505 74.2991 358.858C70.8155 359.05 67.6362 357.685 65.1726 355.253C62.5347 352.649 60.7929 348.831 60.9316 345.091C61.2209 337.291 69.8379 334.849 74.7059 330.246C86.9992 318.622 87.9642 297.52 88.3701 281.696C88.3166 274.371 88.6211 267.06 89.2837 259.765Z" fill="#1594D5"/>
<path d="M146.396 306.498C153.82 307.213 161.617 306.786 169.086 306.791C182.411 306.853 195.736 306.8 209.061 306.633C214.466 306.541 220.782 307.309 226.052 306.495L225.854 310.11C226.238 318.565 225.996 327.102 225.977 335.568C225.984 341.838 226.373 348.38 225.878 354.616C219.095 355.747 211.446 355.184 204.581 355.09C191.973 354.954 179.364 354.901 166.755 354.931C160.141 354.927 153.048 354.429 146.51 355.245L146.483 333.992L146.536 317.031L146.396 306.498Z" fill="#1594D5"/>
<path d="M278.448 68.0791C294.042 75.7833 308.223 86.7051 316.22 102.488C318.651 107.286 320.294 113.289 323.886 117.325C317.575 123.768 306.218 131.914 298.893 137.99C284.338 150.066 270.036 162.807 255.14 174.426C252.572 176.429 247.953 180.576 244.733 181.341C242.302 181.918 239.917 180.709 237.994 179.316C235.154 177.259 230.82 172.662 230.627 168.912C230.372 163.928 241.931 149.205 245.063 144.051C249.02 137.552 252.7 130.899 256.102 124.094C259.505 117.288 262.619 110.353 265.443 103.288C267.745 97.663 276.721 70.35 278.448 68.0791Z" fill="#E92B2C"/>
<path d="M237.5 355C237.682 355.11 237.855 355.24 238.049 355.332C242.04 357.238 248.668 356.774 253.223 358.173C266.335 362.197 272.687 382.375 277.353 393.408C288.268 419.389 298.302 445.67 307.455 472.251C308.159 477.475 309.483 482.618 310 487.862L309.673 488.911C307.037 489.56 280.461 486.463 274.578 486.162C262.406 485.012 205.593 480.898 198.775 477.734L198.335 476.465C198.512 474.649 198.637 472.831 198.709 471.008C198.862 467.801 190.636 485.949 188 483.5C184.73 480.462 180.292 480.252 176 480.5C158.824 480.701 139.63 461.605 123.087 466.116C122.581 460.029 121.556 451.657 123.247 445.831C125.838 436.902 132.052 433.273 130.645 422.619C128.693 407.834 114.369 396.889 113.091 383.898C112.422 377.106 115.527 371.065 119.975 365.946C128.231 356.446 138.335 356.681 150.206 355.653C157.397 354.806 165.199 355.323 172.473 355.327C186.341 355.296 200.209 355.351 214.076 355.492C221.627 355.59 230.039 356.174 237.5 355Z" fill="#61D2EC"/>
<path d="M175.387 456.41L175.933 455.348C173.752 452.746 170.763 451.026 168.522 448.469C160.205 438.976 155.393 425.769 156.5 413.135C157.191 405.241 160.163 397.064 166.499 391.963C172.546 387.095 180.21 385.921 187.708 386.931C207.996 389.665 228.498 406.408 240.415 422.278C252.885 438.886 262.472 459.762 261.392 480.961C261.392 487.5 263.302 483.5 238.802 483.5L193.302 486C193.463 484.252 180.737 482.256 180.802 480.5C180.941 477.41 181.699 480.859 179.302 478.5C176.329 475.574 179.289 456.171 175.387 456.41Z" fill="#9ADAF5"/>
<path d="M68.3906 199.445C87.9603 197.648 108.061 198.741 127.708 198.78C145.933 198.816 178.981 197.172 195.914 201.326C212.874 205.487 228.075 213.986 241.419 225.105C264.54 244.371 282.082 274.744 284.714 304.973C284.758 305.463 284.798 305.954 284.833 306.444C265.256 306.475 245.62 306.116 226.052 306.495C220.782 307.309 214.466 306.541 209.061 306.633C195.736 306.801 182.411 306.853 169.086 306.791C161.617 306.786 153.82 307.213 146.396 306.498L133.209 306.493C130.935 297.877 127.936 289.753 122.363 282.683C118.272 274.384 97.5102 264.658 89.2836 259.765C83.4186 255.003 75.8971 252.775 69.4195 248.984C70.7976 248.655 72.1827 248.324 73.5389 247.913C78.9035 246.286 83.5911 241.681 86.0839 236.754C86.2683 236.382 86.4432 236.006 86.6087 235.625C86.7743 235.245 86.9302 234.86 87.0765 234.472C87.2229 234.084 87.3594 233.692 87.4862 233.297C87.613 232.902 87.7298 232.504 87.8367 232.102C87.9436 231.702 88.0404 231.298 88.1271 230.892C88.2138 230.486 88.2903 230.079 88.3567 229.669C88.4231 229.259 88.4792 228.848 88.525 228.435C88.5708 228.023 88.6063 227.609 88.6315 227.195C88.6567 226.781 88.6715 226.367 88.676 225.951C88.6805 225.537 88.6746 225.122 88.6583 224.707C88.6421 224.293 88.6155 223.878 88.5785 223.464C88.5416 223.051 88.4944 222.639 88.4368 222.228C88.3793 221.817 88.3115 221.408 88.2335 221C88.1556 220.592 88.0675 220.187 87.9692 219.784C87.871 219.381 87.7628 218.98 87.6446 218.582C87.5264 218.184 87.3983 217.79 87.2603 217.398C84.1743 208.679 76.3135 203.402 68.3906 199.445Z" fill="#0BB1F6"/>
<path d="M410.491 186C414.233 186.046 418.3 185.725 421.117 188.698C422.381 190.03 422.838 191.591 423.138 193.376C424.535 201.695 423.94 223.964 423.37 232.854C423.223 235.139 422.913 237.337 422.432 239.574C420.758 241.486 419.25 242.891 417.104 244.226C429.273 247.089 438.148 251.257 444.972 262.34C452.417 274.431 453.175 287.819 453.269 301.674C453.302 306.471 453.11 311.321 454 316.055C442.171 328.578 429.243 340.274 416.629 351.99C409.689 358.437 401.273 364.886 395.807 372.633C393.867 375.38 392.604 378.21 392.137 381.565C390.543 393.018 391.667 408.683 391.666 420.589L391.628 499C384.715 498.889 377.298 497.248 370.372 496.5L314.058 490.359C309.808 489.893 296.222 488.998 293.05 487.813C292.091 487.455 292.203 487.205 291.768 486.337C291.297 481.221 290.091 476.204 289.45 471.109C289.812 465.53 289.533 459.757 289.528 454.157L289.477 423.032L289.323 334.31C289.321 319.64 288.223 300.814 290.089 286.567C291.091 278.912 293.309 271.439 297.172 264.75C303.707 253.435 312.718 247.291 325.062 243.983C323.481 243.451 321.739 242.868 320.308 242.006C318.962 241.197 318.365 240.266 317.965 238.727C315.815 230.455 315.292 194.768 319.118 187.904C322.728 185.202 328.91 186.194 333.152 186.407C341.527 186.839 350.005 186.416 358.393 186.358L410.491 186Z" fill="#FBD713"/>
<path d="M410.296 186.015C414.031 186.06 418.091 185.743 420.903 188.679C422.164 189.995 422.62 191.536 422.92 193.299C424.314 201.514 423.72 223.505 423.151 232.284C423.005 234.54 422.695 236.711 422.215 238.92C420.544 240.808 419.039 242.195 416.897 243.513C411.768 242.337 331.497 242.095 325.027 243.273C323.449 242.748 321.711 242.172 320.282 241.321C318.939 240.522 318.343 239.603 317.944 238.083C315.798 229.915 315.276 194.673 319.095 187.895C322.698 185.227 328.868 186.207 333.102 186.417C341.462 186.844 349.924 186.426 358.296 186.369L410.296 186.015Z" fill="#E92B2C"/>
<path d="M512.727 1023.63C512.36 1019.77 512.726 1015.65 512.739 1011.77L512.613 991.032L512.559 909.237L512.552 643.652L512.972 551.21C513.01 539.051 512.204 526.663 512.599 514.543C512.656 512.778 512.735 511.536 513.606 509.985C521.426 518.066 527.565 528.015 533.801 537.328C539.489 545.853 545.307 554.288 551.256 562.634L602.229 634.659C611.408 647.632 620.827 660.494 629.716 673.666C655.877 671.996 682.024 668.109 708.069 665.112L826.509 651.997C845.535 649.984 864.604 647.668 883.668 646.085C904.036 644.913 924.462 642.157 944.736 639.888L1024 631.271V1024H512.481L512.727 1023.63ZM1024 631.271L944.736 639.888C924.462 642.157 904.036 644.913 883.668 646.085L883.728 852.057C883.482 893.008 883.558 933.958 883.956 974.906L801.493 985.454L620.975 1008.39C596.661 1011.4 572.37 1014.58 548.101 1017.94C536.45 1019.53 523.932 1019.98 512.727 1023.63L512.481 1024H1024V631.271Z" fill="#D78E34"/>
<path d="M393.92 674.941C405.134 660.524 415.213 645.316 425.728 630.393L477.382 557.283C483.327 548.86 506.859 513.712 512.802 509.631L513.606 509.985C512.735 511.536 512.656 512.778 512.599 514.543C512.204 526.663 513.01 539.051 512.972 551.21L512.552 643.652L512.559 909.237L512.613 991.032L512.739 1011.77C512.726 1015.65 512.36 1019.77 512.727 1023.63L512.481 1024H511.141H0V629.422C46.7665 634.571 93.4263 640.887 140.268 645.335C150.688 645.695 161.439 647.575 171.827 648.786L232.657 655.871L349.936 669.654C364.589 671.439 379.305 672.871 393.92 674.941ZM0 629.422V1024H511.141C507.407 1022.91 502.9 1022.72 499.03 1022.19L474.856 1018.91C441.905 1014.48 408.92 1010.32 375.899 1006.44C297.232 996.798 218.833 984.809 140.146 975.406C139.774 952.933 140.091 930.402 140.087 907.923L140.069 778.756L140.057 693.334C140.053 677.382 139.57 661.268 140.268 645.335C93.4263 640.887 46.7665 634.571 0 629.422Z" fill="#E6A44A"/>
</g>
<defs>
<clipPath id="clip0_60_210">
<rect width="1024" height="1024" fill="white"/>
</clipPath>
</defs>
</svg>
